<?xml version="1.0" encoding="UTF-8" standalone="no"?>
<!-- Created with Inkscape (http://www.inkscape.org/) -->

<svg
   xmlns:dc="http://purl.org/dc/elements/1.1/"
   xmlns:cc="http://creativecommons.org/ns#"
   xmlns:rdf="http://www.w3.org/1999/02/22-rdf-syntax-ns#"
   xmlns:svg="http://www.w3.org/2000/svg"
   xmlns="http://www.w3.org/2000/svg"
   xmlns:xlink="http://www.w3.org/1999/xlink"
   xmlns:sodipodi="http://sodipodi.sourceforge.net/DTD/sodipodi-0.dtd"
   xmlns:inkscape="http://www.inkscape.org/namespaces/inkscape"
   width="255"
   height="255"
   viewBox="0 0 67.468749 67.468752"
   version="1.1"
   id="svg35"
   inkscape:version="0.92.2 2405546, 2018-03-11"
   sodipodi:docname="finalelogo.svg"
   inkscape:export-filename="/home/alex/dev/prologin/prologin2018/meta/finalelogo.270.png"
   inkscape:export-xdpi="101.64706"
   inkscape:export-ydpi="101.64706">
  <defs
     id="defs29">
    <clipPath
       clipPathUnits="userSpaceOnUse"
       id="clipPath245">
      <path
         d="m -14.415373,229.38411 c -0.005,0.0734 -0.0367,0.12692 -0.0934,0.16205 0.23629,-0.0718 0.47656,0.0854 0.68731,0.17402 0.34006,0.14289 0.72322,0.15247 1.08404,0.2291 0.46139,0.0982 0.98106,0.0367 1.45284,0.0335 0.70885,-0.005 1.3945596,0.10297 2.1010296,0.14049 0.3209,0.0176 0.60668,0.14688 0.92997,0.16604 0.34406,0.0192 0.70248,-0.008 1.04892,-0.008 0.57076,0 1.14871,0.0231 1.71947,0.003 0.58672,-0.0207 1.3754,-0.55958 1.92062,-0.28737 -0.17243,-0.20516 -0.16365,-0.41271 -0.42548,-0.57954 -0.2307,-0.14529 -0.4135,-0.1389 -0.50849,-0.45581 0.1836,-0.0639 0.3672,0.0247 0.5532,-0.0184 0.13011,-0.0303 0.30174,-0.1405 0.43585,-0.19398 0.26582,-0.10617 0.64739,-0.19478 0.84137,-0.4119 -0.32011,-0.26503 -0.60509,-0.55959 -0.94515,-0.78789 -0.41589,-0.27939 -0.95233,-0.3201 -1.38578,-0.59072 -0.48614,-0.30254 -0.98027,-0.48534 -1.48797,-0.71284 -0.30573,-0.1389 -0.63541,-0.099 -0.90363,-0.28818 -0.2323,-0.16284 -0.47098,-0.41669 -0.6881,-0.60907 0.26662,-0.28418 0.68251,-0.47657 0.99144,-0.70647 0.22112,-0.16524 0.38955,-0.43585 0.59391,-0.63861 0.30573,-0.30334 0.62584,-0.5963 0.89565,-0.93077 1.07207,-1.33071 1.7937,-2.74284 2.43311,-4.30424 0.45181,-1.1048 0.57235,-2.53688 0.40951,-3.73587 -0.0519,-0.38397 -0.12373,-0.34406 -0.45102,-0.15008 -0.25545,0.15167 -0.48934,0.33368 -0.73919,0.48854 -0.4175,0.25943 -0.74,0.42148 -1.0617,0.80784 0.0607,-1.11038 0.003,-2.23274 0.008,-3.34472 8e-4,-0.60988 -0.0862,-1.11119 -0.26263,-1.69312 -0.15965,-0.52845 -0.25624,-1.10799 -0.51727,-1.60212 -0.18121,-0.34245 -0.25944,-0.2722 -0.15806,-0.63142 0.0567,-0.19797 0.16045,-0.39514 0.19717,-0.59471 0.11974,-0.63941 -0.007,-1.44486 -0.007,-2.09624 0,-0.9675 -0.0232,-1.87831 -0.14927,-2.83144 -0.0575,-0.43745 -0.0742,-0.92279 -0.17961,-1.34986 -0.15088,-0.61626 -0.38077,-1.21895 -0.53085,-1.83841 -0.24187,-1.00182 -0.65298,-2.02838 -1.19181,-2.91126 -0.69449,-1.13753 -1.3331,-2.3006 -2.13695,-3.36229 -0.3687996,-0.48455 -0.6106696,-1.02098 -1.0393396,-1.46402 -0.48454,-0.5029 -1.0122,-0.96031 -1.46401,-1.49435 -0.56518,-0.66974 -1.23332,-1.05291 -1.98768,-1.44964 -0.15007,-0.079 -0.23868,-0.15646 -0.40153,-0.22431 -0.16763,-0.071 -0.29456,-0.087 -0.484542,-0.1421 -0.421484,-0.12293 -0.771922,-0.43106 -1.1966,-0.53483 -0.200363,-0.0495 -0.39035,-0.0367 -0.597101,-0.0343 -0.100579,-0.002 -0.201959,-7.9e-4 -0.30254,0.004 -0.141293,-0.0184 -0.229899,-0.099 -0.328086,-0.11974 -0.189191,-0.0407 -0.375984,0.008 -0.564372,-0.0247 -0.226709,-0.0399 -0.376783,-0.26183 -0.546812,-7.9e-4 0.328086,0.0455 0.79507,-0.2291 1.10799,-0.34485 0.628232,-0.23389 1.128744,-0.5979 1.537457,-1.12396 0.354428,-0.4582 0.560379,-0.84376 0.739989,-1.38658 0.06546,-0.19797 0.08781,-0.4119 0.145286,-0.5979 0.06865,-0.21952 0.253851,-0.30334 0.130913,-0.57874 -0.213135,-0.0447 -0.280988,0.19318 -0.422281,0.29216 -0.181205,0.12852 -0.383166,0.15487 -0.564372,0.2794 -0.224313,0.15246 -0.383966,0.43585 -0.592312,0.61705 -0.29456,0.25465 -0.613066,0.49094 -0.908423,0.75117 -0.380772,0.33527 -0.684911,0.72722 -1.043331,1.07047 -0.210743,0.20516 -0.30414,0.61866 -0.601094,0.69928 -0.091,-0.30733 0.02235,-0.47497 0.08701,-0.76234 0.103774,-0.45421 0.153267,-1.00661 0.185995,-1.472 0.03433,-0.50291 0.146881,-0.98825 0.145284,-1.49355 -7.93e-4,-0.46459 0.149277,-0.8741 0.149277,-1.34507 -0.0024,-0.6458 -0.211541,-0.88847 -0.89725,-0.89007 -0.68491,-8e-4 -1.119165,-0.43186 -1.380198,0.44863 -0.07344,0.24905 -0.166038,0.49492 -0.2299,0.74398 -0.07583,0.29615 -0.01038,0.60029 -0.03033,0.90283 -0.01597,0.26982 -0.136503,0.47657 -0.156459,0.74478 -0.02315,0.34565 0.0048,0.70248 0.0048,1.04972 0,0.24746 -0.0024,0.49572 0,0.74318 0,0.14289 0.02155,0.31133 0.0024,0.45262 -0.01756,0.14209 -0.09739,0.2275 -0.119739,0.32888 -0.04071,0.19638 -0.08861,0.51808 -0.04071,0.72163 0.06785,0.28179 0.230698,0.37519 0.127722,0.72403 -0.502906,-0.22751 -1.040936,-0.38556 -1.606106,-0.42867 -0.432658,-0.0335 -0.815826,-0.20276 -1.242099,-0.26981 -0.522063,-0.083 -1.120762,-0.24666 -1.642825,-0.14928 -1.550229,0.28897 -3.100458,0.47178 -4.596404,1.0122 -0.623444,0.22511 -1.396163,0.39035 -1.942175,0.74797 -0.298551,0.19398 -0.602689,0.35683 -0.897249,0.56039 -0.377578,0.26103 -0.831791,0.41908 -1.203781,0.66814 -0.712052,0.47736 -1.315538,0.99384 -1.935789,1.6109 -0.143687,0.14369 -0.332876,0.28737 -0.455809,0.44862 -0.107765,0.14209 -0.156459,0.33048 -0.283383,0.45581 -0.130117,0.13012 -0.291366,0.15566 -0.42308,0.28738 -0.126126,0.12692 -0.231496,0.28258 -0.372789,0.41509 -0.842967,0.78629 -1.366628,1.91185 -1.939781,2.87295 -0.322498,0.53963 -0.494923,1.05291 -0.710455,1.64842 -0.122932,0.33846 -0.330482,0.57235 -0.489335,0.88847 -0.235488,0.46858 -0.420685,0.918 -0.709657,1.36104 -0.41829,0.641 -0.555591,1.41612 -0.892458,2.09225 -0.134907,0.27061 -0.265822,0.41988 -0.299349,0.73999 -0.03911,0.3672 -0.152469,0.65936 -0.150074,1.04572 0.0024,0.29935 0,0.5979 0,0.89725 0,0.25544 0.08222,0.66416 0.0072,0.90363 -0.06625,0.21554 -0.324893,0.37439 -0.459001,0.554 -0.144486,0.19238 -0.324894,0.40472 -0.444633,0.62823 -0.225909,0.42069 -0.368,0.922 -0.484546,1.38579 -0.07264,0.28658 -0.09819,0.53244 -0.146082,0.82221 -0.06705,0.14369 -0.109363,0.29376 -0.12453,0.45182 -0.02634,0.22112 0.04151,0.45102 0.01517,0.67214 -0.03512,0.30334 -0.147678,0.55798 -0.159652,0.86691 -0.01038,0.24427 -7.99e-4,0.49572 0.0024,0.73999 0.0032,0.25305 -0.05508,0.3664 -0.114949,0.5979 -0.06386,0.24267 -0.03353,0.49652 -0.03433,0.74717 0,0.42229 -0.08062,0.93238 -0.0072,1.34508 0.08222,0.46938 0.302542,0.90842 0.419088,1.3786 0.08222,0.33128 0.102976,0.43505 0.299349,0.71365 0.158855,0.22591 0.283384,0.44064 0.477362,0.63143 0.328884,0.32329 0.679322,0.49652 1.05291,0.71524 0.451019,0.26343 0.272208,0.67453 0.296156,1.15828 0.03273,0.64979 0.228303,1.38738 0.411105,2.01641 0.185198,0.63862 0.406317,1.30596 0.67613,1.91424 0.159652,0.36241 0.571557,0.80545 0.567566,1.18702 -0.004,0.30973 -0.02714,0.26822 -0.30334,0.30334 -0.312121,0.0391 -0.453415,0.0551 -0.750369,0.18759 -0.486143,0.21553 -0.885274,0.42228 -1.344276,0.70567 -0.421483,0.25943 -0.776711,0.57634 -1.195799,0.85973 -0.367198,0.24904 -0.562773,0.50768 -0.72482,0.89564 0.197171,0.28178 0.571556,0.19318 0.8733,0.18759 0.409509,-0.006 0.734403,0.14928 1.151096,0.14928 -0.375982,0 -1.0114,0.0543 -1.30995,0.32888 -0.463792,0.42627 0.312121,0.63462 0.600294,0.72163 0.411106,0.12373 0.914012,0.30015 1.352259,0.29456 0.58353,-0.008 1.10799,0.087 1.67795,0.14129 0.314517,0.0303 0.577943,0.14928 0.900441,0.16125 0.379974,0.0144 0.783895,0.0256 1.159079,-0.0367 0.87889,-0.14448 1.775339,-0.10617 2.656623,-0.23309 0.647391,-0.0934 1.234115,-0.15646 1.829619,-0.44783 0.360017,-0.17562 0.775114,-0.30972 1.167062,-0.35762 0.0032,-0.11894 0.138099,-0.23948 0.145284,-0.31052 0.01756,-0.19398 -0.02634,-0.21154 -0.104573,-0.38078 0.609076,-0.18679 1.33789,0.12134 1.932597,0.23469 0.434255,0.0822 0.894055,0.0311 1.333898,0.0335 0.667349,0.004 1.293986,-0.16205 1.950159,-0.15247 0.483747,0.006 1.014593,0.0679 1.491156,-0.0295 0.352035,-0.0726 0.64819,-0.15327 1.017786,-0.12852 0.33128,0.0247 0.628234,0.14927 0.961908,0.16923 0.981865,0.0583 2.113803,-0.20196 3.07571,0.0247 0.305735,0.0727 0.44623,0.14529 0.769527,0.083 0.318507,-0.0607 0.56996,-0.11734 0.903634,-0.11574 0.24347,7.9e-4 0.480555,0.0176 0.715244,-0.0327 0.131714,-0.0287 0.138898,-0.12294 0.33128,-0.12294 0.193979,0 0.199567,0.0942 0.332076,0.12294 0.513286,0.11175 1.111983,-0.0974 1.61888,0.0255 0.08142,0.01 0.139697,0.0511 0.175619,0.12292 0.146082,0.0319 0.270611,0.012 0.418288,0.0303 0.269015,0.0327 0.435854,0.14528 0.718439,0.17802 0.01675,0.083 0.03353,0.16603 0.05109,0.24825 0.184399,0.0535 0.357624,-0.009 0.539624,0.0551 0.17083,0.0607 0.25385,0.24588 0.48136,0.26902"
         id="path227"
         inkscape:connector-curvature="0" />
    </clipPath>
  </defs>
  <sodipodi:namedview
     id="base"
     pagecolor="#ffffff"
     bordercolor="#666666"
     borderopacity="1.0"
     inkscape:pageopacity="0.0"
     inkscape:pageshadow="2"
     inkscape:zoom="1.979899"
     inkscape:cx="78.990441"
     inkscape:cy="47.220813"
     inkscape:document-units="mm"
     inkscape:current-layer="g4122"
     showgrid="false"
     units="px"
     inkscape:pagecheckerboard="true"
     inkscape:window-width="1371"
     inkscape:window-height="1400"
     inkscape:window-x="2467"
     inkscape:window-y="18"
     inkscape:window-maximized="0" />
  <metadata
     id="metadata32">
    <rdf:RDF>
      <cc:Work
         rdf:about="">
        <dc:format>image/svg+xml</dc:format>
        <dc:type
           rdf:resource="http://purl.org/dc/dcmitype/StillImage" />
        <dc:title />
      </cc:Work>
    </rdf:RDF>
  </metadata>
  <g
     inkscape:groupmode="layer"
     id="layer2"
     inkscape:label="bG"
     style="display:none">
    <rect
       transform="translate(0,-229.53121)"
       id="rect1139"
       width="62.933037"
       height="62.933037"
       x="2.2678566"
       y="231.79907"
       rx="2.1166666"
       ry="2.1166666"
       style="fill:#504b78;fill-opacity:1;stroke-width:0.26458332" />
    <rect
       transform="translate(0,-229.53121)"
       style="fill:#beeef8;fill-opacity:1;stroke:#000000;stroke-width:1.5;stroke-miterlimit:4;stroke-dasharray:none;stroke-opacity:1;paint-order:stroke fill markers"
       ry="2.1166666"
       rx="2.1166666"
       y="235.8623"
       x="6.3310986"
       height="54.806557"
       width="54.806553"
       id="rect2133" />
  </g>
  <g
     inkscape:label="Layer 1"
     inkscape:groupmode="layer"
     id="layer1"
     transform="translate(0,-229.53121)">
    <g
       transform="matrix(0.35277777,0,0,-0.35277777,-119.68339,253.95838)"
       id="g239">
      <g
         id="g241"
         clip-path="url(#clipPath245)">
        <g
           id="g247"
           transform="translate(315.332,210.3896)">
          <path
             d="m 0,0 c 1.077,1.034 2.686,1.432 4,1.982 1.369,0.574 2.617,1.5 4,2.183 3.179,1.569 6.518,0.301 9.668,1.835 2.663,1.297 3.397,1.772 5.5,3.75 1.375,1.294 5.867,-0.044 7.25,1.25 1.765,1.652 7.287,1.957 8.5,4 0.839,1.414 10.454,6.067 11.25,7.5 0.94,1.691 1.376,7.32 2.25,9 1.761,3.382 4.257,13.542 5.25,17.25 1.034,3.859 -0.394,6.854 0.5,10.75 1.316,5.735 -2.497,12.34 -2.5,18.25 -0.002,4.46 -8.383,3.64 -9.152,8.057 -1.055,6.061 -1.788,12.185 -3.15,18.196 -3.075,13.567 -7.459,27.621 -14.181,39.851 -3.024,5.503 -5.966,10.981 -9.204,16.357 -2.813,4.672 -6.255,8.355 -9.817,12.456 -3.609,4.154 -7.591,7.531 -11.531,11.331 -4.05,3.903 -7.911,7.544 -12.62,10.669 -7.835,5.2 -16.38,10.374 -25.346,13.364 -4.132,1.378 -8.445,1.937 -12.702,2.802 -4.542,0.924 -9.147,2.358 -13.817,2.533 -3.775,0.141 -7.708,0.156 -11.481,0.002 -2.044,-0.083 -3.985,-0.661 -6.032,-0.72 -1.818,-0.052 -3.327,-0.085 -5.116,-0.467 -8.056,-1.725 -16.222,-3.562 -24.037,-6.2 -3.357,-1.133 -6.657,-1.994 -9.981,-3.314 -3.247,-1.29 -6.421,-2.734 -9.684,-3.984 -5.824,-2.233 -10.274,-7.457 -14.481,-11.833 -3.878,-4.033 -7.069,-10.115 -8.521,-15.551 -0.718,-2.692 -1.859,-5.312 -2.83,-7.931 -0.604,-1.628 -0.506,-3.062 -0.797,-4.735 -0.31,-1.776 -0.922,-3.553 -1.371,-5.299 -1.208,-4.698 -1.922,-9.508 -3.333,-14.165 -1.218,-4.023 -0.972,-8.302 -1.135,-12.5 -0.066,-1.708 -0.707,-3.097 -0.68,-4.817 0.029,-1.807 -0.296,-2.841 -0.688,-4.518 -0.648,-2.773 -2.037,-5.13 -1.983,-8 0.027,-1.492 -0.602,-2.563 -0.68,-4 -0.07,-1.289 -0.075,-2.697 0,-3.984 0.251,-4.274 1.577,-8.516 2.534,-12.683 1.995,-8.691 3.478,-17.412 6.632,-25.835 1.525,-4.071 3.202,-8.055 4.684,-12.163 0.669,-1.851 1.714,-3.499 2.366,-5.335 0.714,-2.012 1.086,-4.041 1.965,-6.035 1.325,-3.006 2.677,-5.946 4.499,-8.648 0.75,-1.112 1.661,-2.478 2.669,-3.352 1.213,-1.051 2.133,-2.303 3.333,-3.335 1.188,-1.023 2.253,-1.98 3.333,-3.133 1.435,-1.531 2.834,-2.418 4.519,-3.645 0.734,-0.536 1.284,-1.318 2.15,-1.852 0.922,-0.568 1.802,-1.191 2.68,-1.834 1.541,-1.126 2.951,-2.318 4.651,-3.352 1.511,-0.918 3.088,-1.855 4.667,-2.644 0.918,-0.459 1.7,-0.694 2.667,-1.001 0.986,-0.313 1.738,-0.255 2.701,-0.466 0.432,-0.095 1.613,-0.52 1.985,-0.683 0.74,-0.328 1.244,-0.428 1.98,-0.687 1.023,-0.358 3.328,-1.427 4.183,-0.114 1.817,-0.724 3.828,-0.184 5.817,-0.701 2.193,-0.571 4.324,-0.553 6.665,-0.52 1.299,0.018 1.567,-0.442 2.634,-0.699 C -88.407,2.4 -87,2.664 -86,2.667 c 2.277,0.007 3.792,-0.68 6,-0.667 1.111,0.006 2.223,-0.017 3.333,-0.002 1.339,0.017 2.084,-0.498 3.334,-0.701 0.444,0.025 0.889,0.05 1.333,0.074 0.74,-0.12 1.262,-0.595 1.998,-0.736 1.301,-0.251 1.609,0.487 2.634,0.733 1.634,0.394 5.039,0.293 6.701,0 1.255,-0.221 1.992,-0.719 3.334,-0.699 1.333,0.019 2.667,-0.003 4,-0.002 1.041,0 2.316,-0.214 3.333,-0.034 1.254,0.221 1.992,0.716 3.333,0.699 2.222,-0.029 4.446,0.002 6.667,0.002 1.003,0 2.404,-0.267 3.368,-0.034 1.067,0.257 1.337,0.716 2.634,0.698 C -31.555,1.963 -29.109,2 -26.667,2 H -20 c 1.111,0 2.223,-0.006 3.333,0 0.45,-0.008 0.9,-0.003 1.349,0.016 0.63,-0.083 1.024,-0.441 1.466,-0.534 1.011,-0.212 2.027,-0.084 3.037,-0.296 0.158,-0.326 0.418,-0.51 0.781,-0.553 0.564,-0.137 1.447,0.029 2.034,0.034 1.08,0.01 2.152,0.087 3.185,-0.148 0.588,-0.134 0.6,-0.583 1.453,-0.569 0.95,0.016 1.654,0.732 2.695,0.717"
             style="fill:#ebe9cf;fill-opacity:1;fill-rule:nonzero;stroke:none"
             id="path249"
             inkscape:connector-curvature="0" />
        </g>
        <g
           id="g251"
           transform="translate(192.6665,435.0562)">
          <path
             d="M 0,0 C -0.147,0.001 1.894,0.685 3.336,0.664 4.89,0.642 6.446,0.691 8,0.669 c 1.688,-0.025 3.031,0.962 4.667,0.514 1.598,-0.439 2.773,-0.514 4.502,-0.516 2.248,-0.003 4.03,-0.124 6.201,-0.686 1.98,-0.513 4.093,-0.545 6.096,-1.116 5.32,-1.516 10.038,-4.219 15.199,-6.031 6.422,-2.255 12.692,-6.542 17.337,-11.485 1.908,-2.03 3.851,-3.898 5.832,-5.867 1.515,-1.506 3.428,-2.481 4.831,-4.114 2.587,-3.014 5.003,-6.187 8.15,-8.701 3.206,-2.561 6.125,-5.375 8.538,-8.667 1.751,-2.391 3.691,-4.725 5.815,-6.832 1.232,-1.221 3.248,-4.179 4.817,-4.551 0.612,-0.146 1.397,0.144 2.031,0.065 0.648,-0.082 1.008,-0.436 1.466,-0.534 1.262,-0.271 2.548,-0.063 3.851,-0.133 1.035,-0.057 1.679,-0.549 2.667,-0.716 0.65,-0.11 1.35,0.179 2,0.069 0.739,-0.125 1.268,-0.582 2,-0.736 0.634,-0.132 1.371,0.13 2.016,0.05 2.126,-0.265 4.156,-1.212 6.132,-1.851 1.55,-0.502 3.117,-1.141 4.534,-1.982 1.064,-0.63 1.538,-1.56 2.471,-2.348 1.091,-0.92 1.939,-1.323 2.828,-2.484 0.88,-1.149 1.781,-2.082 2.505,-3.335 1.054,-1.822 2.474,-2.73 4.03,-4.015 1.049,-0.867 2.018,-2.22 2.837,-3.334 2.248,-3.059 4.414,-6.155 6.126,-9.514 1.415,-2.774 3.375,-5.356 5.021,-7.968 0.625,-0.991 1.182,-2.129 1.685,-3.147 0.331,-0.67 1.294,-2.435 1.164,-3.154 -0.049,1.413 -0.016,2.833 -0.016,4.248 0,-1.265 0.019,-2.533 0.003,-3.798 -0.018,-1.341 0.478,-2.08 0.699,-3.333 0.18,-1.027 -0.053,-2.284 -0.037,-3.334 0.02,-1.342 -0.478,-2.079 -0.699,-3.333 -0.36,-2.045 0.02,-4.58 0.034,-6.667 0.017,-2.344 -0.708,-4.285 -0.668,-6.666 0.025,-1.492 -0.603,-2.564 -0.681,-4 -0.059,-1.1 0.016,-2.231 0.016,-3.334 0,-2.095 -0.396,-4.614 -0.035,-6.666 0.387,-2.195 1.079,-4.028 2.035,-5.963 0.485,-0.984 0.916,-1.633 1.516,-2.519 0.423,-0.625 17.819,5.597 18.483,5.148 -0.233,-2.284 3.999,-6.183 4,-8.666 0.002,-3.242 1.333,-9.397 1.334,-12.667 0,-3.029 -0.704,-4.97 -0.667,-8 0.038,-3.141 0.383,-6.226 0,-9.333 -0.163,-1.311 5.448,-2.726 6.831,0.502 1.235,2.883 2.993,5.92 4.503,8.831 1.659,3.197 2.368,7.099 3.497,10.667 0.91,2.872 1.341,5.717 1.8,8.666 0.347,2.232 1.936,4.526 2.886,6.518 2.189,4.595 2.183,10.202 2.468,15.482 0.089,1.635 0.692,2.945 0.682,4.667 -0.006,1.224 0.302,2.852 0.035,4.035 -0.203,0.898 -1.032,1.757 -1.387,2.613 -0.105,0.252 -0.394,1.228 -0.484,1.5 -0.194,0.584 -0.551,1.281 -0.682,1.852 -0.334,1.456 -0.604,2.552 -0.961,4.002 -0.194,0.789 -0.503,1.134 -0.538,1.998 -0.031,0.745 0.062,1.262 -0.131,2 -0.668,2.558 -0.801,5.257 -1.333,7.851 -0.147,0.718 -0.53,1.164 -0.516,2.151 0.009,0.665 -0.003,1.332 -0.003,1.998 0,1.333 0,2.667 0,4 v 7.965 c 0,3.327 0.687,7.499 -0.148,10.702 -0.373,1.43 -0.524,2.457 -0.518,4 0.004,1.202 0.313,2.879 0.035,4.034 -0.197,0.812 -0.595,1.028 -0.718,1.95 -0.086,0.651 0.075,1.358 0.032,2.016 -0.095,1.436 -0.721,2.506 -0.683,4 0.039,1.494 -0.604,2.561 -0.682,4 -0.072,1.34 0.201,2.694 -0.132,4 -1.392,5.448 -3.411,10.18 -6.017,15.333 -1.388,2.744 -2.098,5.751 -3.171,8.667 -0.933,2.532 -2.013,4.991 -3.313,7.298 -0.846,1.5 -1.726,3.095 -2.519,4.7 -0.572,1.155 -1.574,2.141 -2.02,3.319 -1.08,2.859 -3.226,5.423 -4.976,8.016 -0.972,1.441 -2.01,2.672 -2.984,4.019 -0.406,0.56 -0.976,0.722 -1.371,1.28 -0.429,0.607 -0.55,1.407 -0.947,2.034 -0.922,1.454 -2.415,2.448 -3.719,3.498 -1.09,0.877 -1.811,2.048 -2.796,3.023 -1.268,1.255 -2.545,2.499 -4.035,3.628 -1.385,1.05 -1.835,2.657 -3.32,3.703 -2.81,1.981 -5.346,4.501 -8.032,6.685 -4.314,3.506 -9.54,5.304 -14.002,8.648 -2.337,1.752 -4.668,2.998 -7.297,4.314 -2.494,1.248 -5.294,3.226 -8,3.851 -2.845,0.657 -5.949,1.273 -8.667,2.465 -2.49,1.093 -5.355,2.927 -8,3.535 -1.57,0.361 -2.994,0.684 -4.666,0.653 -1.492,-0.028 -2.563,0.602 -4,0.68 C 87.797,50.171 84.859,50 81.985,50 H 72 C 68.743,50 65.04,50.475 61.852,49.852 60.479,49.583 59.591,49.303 58.151,49.333 57.358,49.35 56.764,49.387 56.002,49.185 55.205,48.974 54.867,48.693 54,48.651 53.361,48.62 52.628,48.81 52,48.701 50.631,48.464 49.355,47.634 48,47.314 46.691,47.006 45.331,46.845 44,46.521 37.8,45.01 31.638,43.186 25.482,41.169 20.894,39.667 16.34,37.018 11.482,35.167 9.138,34.274 6.921,32.587 4.701,31.351 2.185,29.95 0.095,28.078 -1.998,26 -5.969,22.055 -9.521,17.54 -13.333,13.497 -15.662,11.027 -18.577,8.75 -20.701,6 c -1.903,-2.464 -3.918,-5.364 -5.479,-8.016 -1.28,-2.174 -1.537,-4.265 -2.653,-6.484 -1.048,-2.088 -2.364,-4.253 -3.834,-6.167 z"
             style="fill:#504b78;fill-opacity:1;fill-rule:nonzero;stroke:none"
             id="path253"
             inkscape:connector-curvature="0" />
        </g>
        <g
           id="g255"
           transform="translate(345.3335,347.7227)">
          <path
             d="m 0,0 c -0.082,-0.441 -0.286,-0.785 -0.651,-1.048 -2.408,1.125 -3.933,3.432 -6.164,4.881 -2.614,1.697 -5.107,3.397 -7.867,5.017 -4.553,2.671 -8.78,5.564 -13.316,8.335 -4.595,2.807 -8.656,6.752 -14.002,8.667 -1.578,0.565 -2.567,1.105 -4,1.998 -1.247,0.776 -2.694,0.98 -4,1.65 -2.763,1.417 -5.718,2.45 -8.667,3.148 -2.731,0.647 -5.283,1.898 -7.998,2.537 -1.207,0.284 -2.155,0.676 -3.32,0.831 -1.494,0.197 -3.262,-0.402 -4.716,-0.05 -0.604,0.145 -0.661,0.59 -1.265,0.735 -0.562,0.136 -1.448,-0.027 -2.034,-0.034 -1.58,-0.019 -2.525,0.441 -4,0.7 -1.212,0.213 -2.758,-0.014 -3.998,-0.032 -1.601,-0.022 -2.403,0.686 -4.004,0.663 -1.196,-0.018 -2.883,-0.305 -4.033,-0.032 -1.067,0.253 -2.137,0.944 -3.296,1.222 -1.195,0.285 -2.164,0.694 -3.32,0.83 -1.599,0.188 -3.061,0.668 -4.682,0.647 -1.241,-0.017 -2.788,-0.247 -4,-0.032 -1.188,0.21 -2.47,0.977 -3.482,1.221 -1.235,0.297 -2.581,0.779 -3.852,0.831 -1.666,0.068 -2.994,0.668 -4.666,0.646 -3.406,-0.044 -6.12,0.803 -9.334,2.002 -3.087,1.152 -6.208,2.161 -9.333,3.334 -3.138,1.178 -6.077,1.883 -9.185,2.814 -2.831,0.848 -5.987,2.678 -8.649,4.018 -2.652,1.336 -5.403,2.574 -8.201,3.832 -2.63,1.183 -5.774,1.488 -8.466,2.835 -2.515,1.259 -4.489,3.061 -7.351,3.998 -0.657,0.215 -1.401,0.406 -2.164,0.636 -1.534,0.462 -0.829,0.87 -1.296,1.886 -0.588,1.278 -0.745,2.563 -1.254,3.814 1.38,1.473 3.057,3.526 4.717,4.666 1.216,0.835 2.571,1.374 3.716,2.35 1.052,0.898 1.465,1.984 2.3,3.02 2,2.481 6.271,2.857 9.036,3.966 3.353,1.346 6.274,3.081 9.464,4.664 3.687,1.832 7.717,2.907 11.32,4.816 8.141,4.315 18.541,4.02 27.391,2.502 5.288,-0.906 10.454,-0.949 15.794,-1.135 2.816,-0.098 5.554,-0.929 8.309,-1.514 3.531,-0.75 7.055,-0.997 10.553,-1.687 2.255,-0.444 4.508,-0.313 6.797,-0.817 2.619,-0.576 5.088,-1.476 7.69,-2.146 2.614,-0.673 5.625,-1.943 7.997,-3.204 2.928,-1.557 6.312,-2.609 9.368,-3.981 2.218,-0.996 4.827,-2.474 6.598,-4.148 2.247,-2.125 5.05,-3.331 7.664,-5.002 4.772,-3.052 9.895,-5.42 14.37,-8.834 1.737,-1.327 3.314,-2.995 4.834,-4.535 1.426,-1.443 2.736,-2.532 3.944,-4.148 2.838,-3.796 7.876,-5.926 10.218,-10.016 1.673,-2.921 4.102,-5.594 6.486,-7.981 2.598,-2.602 4.987,-5.037 7.185,-8.033 1.037,-1.414 2.435,-2.402 3.484,-3.954 1.189,-1.76 2.125,-3.535 3.164,-5.383 0.75,-1.336 1.731,-2.498 2.35,-3.966 0.252,-0.598 0.864,-1.611 1,-2.148 0.213,-0.849 0.09,-1.653 0.301,-2.519 0.214,-0.881 0.812,-1.786 1.032,-2.666 C 20.746,9.746 20.475,8.905 20.632,8 20.827,6.874 21.439,6.51 21.2,5.333 20.996,4.326 20.655,3.785 20.669,2.667 c 0.01,-0.81 -0.224,-1.924 -0.037,-2.701 0.203,-0.845 0.664,-0.964 0.732,-1.95 0.136,-1.981 -1.405,-3.601 -2.031,-5.349"
             style="fill:#504b78;fill-opacity:1;fill-rule:nonzero;stroke:none"
             id="path257"
             inkscape:connector-curvature="0" />
        </g>
        <g
           id="g259"
           transform="translate(372,237.0557)">
          <path
             d="m 0,0 c 0.838,1.096 2.795,0.623 3.998,1.153 1.284,0.568 2.184,1.4 3.32,2.181 1.083,0.745 2.357,1.352 3.497,1.836 1.674,0.712 2.643,1.563 4,2.666 1.82,1.48 4.296,3.024 5.703,4.979 0.294,0.41 0.312,0.935 0.633,1.368 0.272,0.368 0.759,0.6 1.032,0.968 0.757,1.021 1.159,2.327 1.982,3.385 3.126,4.022 4.796,9.678 5.981,14.65 0.206,0.865 0.933,1.868 1.207,2.78 0.382,1.276 0.467,2.712 0.793,4.034 0.708,2.867 1.268,5.777 1.854,8.683 0.248,1.229 0.689,1.957 0.664,3.32 -0.011,0.58 -0.166,1.475 -0.032,2.032 0.146,0.604 0.59,0.66 0.736,1.264 0.231,0.957 0.173,3.058 0,4.035 -0.243,1.375 0.295,5.008 -0.368,6.25 -0.592,1.11 -2.368,0.141 -3.669,0.433 -1.306,0.294 -2.648,0.864 -3.998,0.5 -1.561,-0.422 -2.706,-0.688 -4.034,-1.704 -1.42,-1.085 -2.602,-2.394 -3.981,-3.514 C 17.391,59.734 15.912,57.699 14,56.035 11.797,54.117 9.934,51.343 8.466,48.815 3.196,39.739 4.25,31.334 -0.5,19.834 -0.947,18.753 -1.834,10.678 -2.25,9.584"
             style="fill:#504b78;fill-opacity:1;fill-rule:nonzero;stroke:none"
             id="path261"
             inkscape:connector-curvature="0" />
        </g>
        <g
           id="g263"
           transform="translate(152,328.3896)">
          <path
             d="m 0,0 v -8 c 0,-1.294 -0.184,-2.737 -0.016,-4.016 0.193,-1.46 0.702,-2.34 0.683,-3.984 -0.019,-1.581 0.441,-2.525 0.701,-4 0.226,-1.282 -0.294,-2.719 -0.069,-4 0.13,-0.741 0.61,-1.258 0.736,-2 0.11,-0.65 -0.18,-1.351 -0.07,-2 0.126,-0.742 0.606,-1.259 0.736,-2 0.148,-0.839 -0.098,-1.812 -0.05,-2.667 0.077,-1.361 0.842,-2.33 1.201,-3.479 0.347,-1.112 0.456,-1.95 0.981,-3.024 1.374,-2.817 2.427,-5.772 3.333,-8.846 0.811,-2.752 2.522,-5.179 3.187,-7.984 0.31,-1.311 0.853,-2.672 1.165,-3.998 0.35,-1.485 0.872,-2.52 1.316,-4.005 0.783,-2.616 2.616,-4.238 3.497,-6.666 0.893,-2.462 1.828,-4.747 2.835,-7.181 0.871,-2.102 2.413,-3.979 3.353,-6.148 0.975,-2.251 2.233,-3.989 3.649,-6.019 1.276,-1.827 2.29,-3.507 3.316,-5.465 0.578,-1.103 1.862,-2.628 2.063,-3.865 0.304,-1.877 -1.243,-1.652 -2.531,-1.168 -2.591,0.973 -4.777,2.898 -7.349,4.029 -1.181,0.518 -2.261,0.481 -3.331,1.154 -1.375,0.864 -1.669,1.109 -3.354,1.314 -2.894,0.352 -3.734,2.16 -4.834,4.684 -0.562,1.29 -0.895,2.654 -1.314,4 -0.523,1.678 -1.418,3.162 -2.017,4.815 -2.135,5.902 -4.295,3.294 -6.442,9.199 -0.416,1.143 -2.856,5.574 -3.375,6.653 -0.532,1.108 0.443,3.838 0,5.035 -0.493,1.332 0.072,6.327 -0.484,7.629 -0.524,1.231 -1.641,2.302 -2.034,3.484 -0.746,2.245 -1.747,4.265 -2.649,6.537 -1.057,2.658 -1.486,5.229 -2.147,7.982 -0.357,1.483 -0.704,2.418 -0.686,4 0.018,1.58 -0.441,2.524 -0.701,4 -0.222,1.264 0.157,2.59 -0.114,3.852 -0.097,0.45 -0.45,0.829 -0.534,1.465 -0.111,0.849 0.016,1.824 0.016,2.683 0,2.665 -0.041,5.333 -0.003,7.997 0.043,2.991 -1.979,4.82 -4.514,6.186 -1.934,1.042 -3.958,1.643 -5.984,2.649 -2.212,1.098 -4.352,2.384 -6.682,3.334 -2.24,0.914 -3.812,2.674 -5.503,4.352 -1.969,1.953 -4.256,4.068 -5.495,6.669 -0.961,2.017 -0.527,4.665 0.032,6.813 0.293,1.122 -0.083,2.221 0.114,3.333 0.237,1.333 0.798,2.718 1.204,4 0.759,2.396 0.955,5.151 2.314,7.333 1.514,2.429 3.059,4.757 4.351,7.334 0.538,1.071 1.02,2.176 1.664,3.185 0.715,1.118 1.019,2.452 1.785,3.497 0.899,1.224 2.183,1.39 3.418,1.984 0.983,0.473 1.85,1.287 2.796,1.852 0.796,0.476 1.794,0.448 2.522,0.798 0.982,0.473 1.857,1.297 2.811,1.869 2.234,1.337 2.954,0.306 3.856,-1.833 0.309,-0.733 0.568,-1.847 0.665,-2.67 0.162,-1.379 0.57,-2.653 0.662,-4.016 0.091,-1.353 4.206,2.326 3.987,1.077 -0.207,-1.177 -0.048,-6.37 0,-7.573 0.12,-3.007 -0.503,-5.232 0,-8.17 0.208,-1.221 -2.175,-3.479 -1.966,-4.667 0.222,-1.26 -0.119,-2.717 -0.05,-4 0.066,-1.211 0.632,-2.123 0.698,-3.333 0.071,-1.32 -0.016,-2.677 -0.016,-4 0,-1.111 0.006,-2.223 0,-3.334 -0.008,-1.709 -0.326,-2.4 1.336,-3.183 C -5.284,8.521 -3.217,7.471 -1.333,6.164 -0.249,5.411 0.92,4.749 2.016,4.002 2.575,3.62 4.544,2.519 4.566,2.101 4.139,1.948 3.951,2.137 4,2.666"
             style="fill:#504b78;fill-opacity:1;fill-rule:nonzero;stroke:none"
             id="path265"
             inkscape:connector-curvature="0" />
        </g>
        <g
           id="g267"
           transform="translate(254.292,428.6855)">
          <path
             d="m 0,0 c 1.322,-0.28 2.766,0.874 4,1.183 1.391,0.347 2.616,0.207 4,0.653 1.362,0.439 2.644,0.642 4,0.977 1.528,0.377 3.096,0.945 4.667,1.222 2.466,0.434 5.482,-0.035 8,-0.035 2.872,0 5.801,0.171 8.666,0.016 1.437,-0.078 2.509,-0.706 4,-0.681 1.543,0.026 2.574,-0.149 4,-0.52 1.328,-0.346 2.672,0.044 4.016,-0.133 1.384,-0.182 2.567,-0.851 3.984,-1.201 2.635,-0.65 5.447,-0.667 8.035,-1.462 0.577,-0.177 0.674,-0.584 1.264,-0.721 0.657,-0.152 1.411,0.216 2.069,0.069 1.086,-0.241 1.942,-1.15 2.763,-1.853 1.513,-1.297 4.022,-3.451 4.568,-5.48 0.655,-2.43 -0.594,-5.94 -1.346,-8.018 -0.387,-1.068 -1.019,-2.543 -1.204,-3.498 -0.276,-1.42 -0.372,-1.919 -1.001,-3.151 -0.702,-1.376 -0.951,-2.695 -1.814,-4.034 -0.987,-1.53 -1.794,-3.164 -2.833,-4.667 -1.413,-2.042 -2.621,-4.008 -3.999,-5.983 -1.52,-2.178 -3.37,-4.077 -4.986,-6.165 -1.682,-2.174 -3.947,-4.57 -6.849,-4.516 -2.886,0.055 -5.78,-0.002 -8.667,-0.002 -1.545,0 -3.125,-0.099 -4.666,-0.016 -1.628,0.088 -2.954,0.666 -4.665,0.68 -1.598,0.012 -2.405,-0.685 -4.004,-0.662 -1.692,0.024 -3.672,-0.316 -5.331,-0.036 -3.647,0.616 -6.401,0.766 -8.959,3.055 -0.478,0.426 -2.321,0.835 -2.664,1.351 -0.309,0.464 3.66,1.125 1.721,2.442 -1.391,0.946 -4.857,1.562 -5.723,2.965 -0.759,1.23 0.224,2.176 -0.641,3.342 -0.644,0.87 -0.275,4.823 -0.919,5.693 -0.834,1.126 -0.831,2.479 -0.815,3.852 0.021,1.841 -0.697,2.919 -0.665,4.669 0.057,3.076 -1.356,5.588 -1.335,8.665 0.01,1.555 0.004,3.111 0,4.666 -0.003,0.73 -0.266,2.025 -0.048,2.701 0.291,0.904 1.44,1.188 2.048,1.966"
             style="fill:#231f20;fill-opacity:1;fill-rule:nonzero;stroke:#504b78;stroke-width:1;stroke-linecap:butt;stroke-linejoin:miter;stroke-miterlimit:10;stroke-dasharray:none;stroke-opacity:1"
             id="path269"
             inkscape:connector-curvature="0" />
        </g>
        <g
           id="g271"
           transform="translate(222,423.0557)">
          <path
             d="m 0,0 c -0.184,-0.038 -0.369,-0.076 -0.553,-0.113 -0.201,-0.68 0.04,-1.22 -0.077,-1.892 -0.132,-0.761 -0.551,-1.345 -0.723,-2.111 -0.523,-2.34 -0.48,-4.874 -1.131,-7.251 -1.072,-3.918 -2.319,-7.439 -4.833,-10.615 -1.405,-1.775 -2.865,-3.528 -4.849,-4.518 -1.139,-0.568 -1.758,-0.904 -3.022,-0.683 -0.378,0.067 -0.898,0.457 -1.463,0.533 -0.869,0.115 -1.822,-0.198 -2.682,-0.05 -2.327,0.399 -4.443,1.883 -6.503,2.866 -2.268,1.083 -4.614,2.133 -6.796,3.338 -2.611,1.44 -4.943,2.689 -7.235,4.677 -0.917,0.795 -1.478,1.654 -2.8,1.853 -0.653,0.099 -1.236,-0.241 -1.867,0.099 -0.542,0.293 -0.862,1.045 -1.431,1.384 -1.162,0.69 -1.896,0.642 -2.867,1.652 -0.881,0.917 -1.216,1.379 -2.486,1.516 -1.626,0.175 -2.369,-0.034 -3.362,1.318 -1.095,1.491 -0.273,1.877 0.05,3.296 0.293,1.282 0.143,2.813 0.613,4.067 0.344,0.917 1.226,1.503 1.982,2.116 2.303,1.865 4.825,3.885 7.403,5.201 1.169,0.596 1.999,0.479 3.299,0.799 1.189,0.293 2.208,0.874 3.298,1.204 1.203,0.364 2.773,0.845 4.035,0.497 1.51,-0.416 3.079,-0.937 4.632,-1.232 1.486,-0.283 3.164,0.672 4.701,0.714 1.596,0.043 2.512,-0.387 4,-0.699 0.634,-0.133 1.371,0.13 2.016,0.05 0.634,-0.079 1.023,-0.443 1.466,-0.534 0.615,-0.126 1.296,0.026 1.889,-0.111 0.799,-0.185 1.041,-0.592 1.947,-0.72 1.187,-0.166 1.951,0.375 2.831,0.532 1.372,0.246 1.87,-0.335 3.182,-0.553 1.103,-0.183 1.722,0.086 2.667,-0.616 0.962,-0.716 1.111,-1.761 2.002,-2.68"
             style="fill:#231f20;fill-opacity:1;fill-rule:nonzero;stroke:#231f20;stroke-width:1;stroke-linecap:butt;stroke-linejoin:miter;stroke-miterlimit:10;stroke-dasharray:none;stroke-opacity:1"
             id="path273"
             inkscape:connector-curvature="0" />
        </g>
        <g
           id="g275"
           transform="translate(222,408.3896)">
          <path
             d="M 0,0 C 0.614,-0.176 2.086,0.447 2.651,0.646 3.729,1.028 4.899,1.574 6,1.85 c 2.153,0.536 4.52,-0.26 6.667,0.298 2.036,0.53 3.951,0.94 5.833,-0.298 2.179,-1.434 1.732,-3.369 0.347,-5.203 -1.368,-1.81 -3.626,-2.775 -5.383,-4.146 -1.381,-1.077 -3.059,-2.735 -4.763,-3.2 -2.162,-0.59 -4.91,0.339 -6.701,1.498 -0.979,0.634 -2.432,1.827 -3.201,2.68 -0.625,0.695 -0.737,1.627 -1.5,2.256 0.012,-0.133 0.023,-0.268 0.034,-0.402"
             style="fill:#f68453;fill-opacity:1;fill-rule:nonzero;stroke:none"
             id="path277"
             inkscape:connector-curvature="0" />
        </g>
        <g
           id="g279"
           transform="translate(368,234.3896)">
          <path
             d="m 0,0 c -5.516,-2.706 -11.118,-5.406 -16.667,-8.165 -4.822,-2.398 -9.211,-5.639 -14.002,-8 -2.342,-1.154 -4.661,-1.834 -6.813,-2.986 -0.641,-0.343 -2.659,-1.208 -2.598,-2.199 0.067,-1.081 0.813,-0.418 1.416,-0.648 0.815,-0.312 1.15,-0.426 1.963,-0.852 1.299,-0.681 2.606,-0.486 4.034,-0.484 1.543,0.002 2.568,-0.137 4,-0.518 1.651,-0.439 2.469,0.261 4,0.55 1.602,0.302 3.04,-0.717 4.667,-0.696 2.666,0.035 5.334,-0.002 8,-0.002 3.123,0 7.035,0.615 10.013,-0.148 1.324,-0.34 2.626,-0.934 3.987,-1.22 0.633,-0.134 1.371,0.13 2.016,0.05 0.588,-0.074 1.067,-0.46 1.466,-0.532 1.457,-0.26 2.4,0.429 3.851,0.532 0.595,0.042 1.427,0.076 2.016,0 0.923,-0.121 1.136,-0.52 1.95,-0.716 2.333,-0.563 -0.386,0.034 2.034,0.034 1.334,0 2.667,0.008 4,0 1.723,-0.01 3.031,0.592 4.667,0.682 2.378,0.131 5.352,-0.177 6.649,1.967 1.714,2.837 4.25,2.5 7.351,2.668 1.21,0.066 2.123,0.632 3.333,0.699 1.425,0.078 2.735,-0.299 4.032,0.469 1.935,1.147 2.569,3.708 1.134,5.348 -1.321,1.509 -3.024,2.332 -4.649,3.3 -1.108,0.658 -2.03,1.635 -3.149,2.198 -0.61,0.307 -1.4,0.459 -2.05,0.689 -0.196,0.068 -1.307,0.461 -1.466,0.501 -2.392,0.575 -4.788,1.036 -7.185,1.625 -0.79,0.194 -1.136,0.502 -2,0.538 -0.745,0.031 -1.263,-0.059 -2,0.13 -1.306,0.335 -2.653,1.003 -4,1.223 -0.705,0.114 -1.275,-0.073 -2,0.111 -0.789,0.201 -1.142,0.487 -2,0.534 -1.303,0.07 -2.589,-0.138 -3.852,0.132 -0.45,0.097 -0.829,0.451 -1.466,0.535 -0.622,0.082 4.616,-0.003 3.985,-0.014 -1.37,-0.023 -2.522,0.768 -3.799,0.681 C 11.245,-2.009 11.622,-2.015 12,-2"
             style="fill:#f68453;fill-opacity:1;fill-rule:nonzero;stroke:none"
             id="path281"
             inkscape:connector-curvature="0" />
        </g>
        <g
           id="g283"
           transform="translate(206,209.0557)">
          <path
             d="m 0,0 c -0.328,1.141 0.677,1.077 0.735,1.966 0.038,0.581 -0.652,2.136 -0.883,2.717 -0.577,1.443 -2.05,2.84 -3.185,3.836 -2.919,2.557 -6.49,3.738 -10.035,4.796 -1.497,0.447 -3.021,1.492 -4.632,1.871 -1.741,0.41 -3.46,0.607 -5.185,0.962 -0.693,0.143 -1.219,0.46 -2.151,0.501 -0.947,0.042 -1.829,0.294 -2.699,0.685 -1.55,0.696 -2.957,1.066 -4.632,1.479 -3.378,0.833 -6.402,1.163 -10,1.187 -1.836,0.013 -2.921,-0.695 -4.669,-0.664 -1.696,0.031 -2.984,-0.299 -4.516,-0.817 -1.275,-0.432 -2.726,-1.426 -4,-2.035 -0.751,-0.359 -1.312,-0.336 -2.166,-0.615 -0.838,-0.273 -1.224,-0.978 -1.947,-1.383 -0.889,-0.496 -1.64,-0.36 -2.553,-0.634 -0.622,-0.187 -1.413,-0.867 -2.149,-1.037 -0.918,-0.211 -1.406,-0.236 -2.182,-0.632 -0.676,-0.345 -0.747,-0.928 -1.704,-0.963 -0.295,-2.441 -2.257,-6.032 1.37,-7.07 1.42,-0.406 3.225,0.317 4.4,-0.966 0.39,-0.426 0.47,-1.319 0.933,-1.848 0.562,-0.642 1.165,-0.94 1.85,-1.334 1.333,-0.766 2.418,-0.67 4,-0.668 0.829,0.001 1.857,0.177 2.667,0.034 0.985,-0.173 1.638,-0.648 2.666,-0.717 0.838,-0.054 1.892,0.245 2.702,0.05 0.813,-0.196 1.027,-0.595 1.949,-0.717 1.706,-0.224 3.624,0.016 5.349,0.016 3.333,0 6.668,-0.045 10,-0.002 1.673,0.022 3.001,-0.578 4.667,-0.646 1.042,-0.043 1.674,-0.544 2.667,-0.719 0.811,-0.143 1.836,0.035 2.666,0.034 1.51,-0.002 3.189,0.212 4.683,0.016 1.539,-0.204 2.91,-1.145 4.685,-0.717 0.752,0.18 1.133,0.535 1.95,0.701 0.931,0.188 1.807,0.246 2.717,0.667 1.347,0.623 2.618,0.687 3.965,1.333"
             style="fill:#f68453;fill-opacity:1;fill-rule:nonzero;stroke:none"
             id="path285"
             inkscape:connector-curvature="0" />
        </g>
        <g
           id="g287"
           transform="translate(297.3335,477.7227)">
          <path
             d="m 0,0 c 1.591,0.521 3.246,1.886 4.799,2.667 2.272,1.142 4.495,1.698 6.534,3.296 2.124,1.665 4.175,3.275 6.516,4.736 0.899,0.56 1.865,1.008 2.818,1.468 1.332,0.645 2.154,1.501 3.333,2.354 3.254,2.355 6.14,5.048 8.518,8.294 0.342,0.467 0.66,1.294 0.982,1.833 0.424,0.708 0.906,1.294 1.332,1.984 0.479,0.778 0.958,1.735 1.348,2.553 0.316,0.662 0.365,1.89 1.037,2.329 -0.129,1.718 -1.623,0.651 -2.553,0.449 -0.56,-0.121 -1.418,0.024 -1.997,0.035 C 31.539,32.019 31.03,31.744 30,31.482 28.443,31.086 27.04,31.163 25.484,30.501 25.091,30.333 24.606,30.029 24.164,29.836 23.322,29.47 22.897,29.579 21.963,29.37 19.586,28.84 17.048,26.894 14.83,25.834 12.273,24.613 9.39,23.044 6.786,22.082 c -0.497,0.924 0.3,0.785 0.401,1.402 0.137,0.838 0.084,1.673 0.294,2.516 0.387,1.55 0.865,3.096 1.352,4.667 1.066,3.441 2.235,6.471 1.315,10 C 9.962,41.381 10.019,41.904 10,42.632 9.965,43.951 9.761,44.803 9.481,46.016 9.159,47.413 9.501,49.08 7.869,49.865 6.828,50.366 4.905,49.399 3.965,48.85 2.647,48.079 1.939,46.715 1.168,45.479 -0.756,42.396 -2.421,39.544 -3.482,36.035 -4.637,32.211 -5.741,28.441 -6.648,24.667 -7.141,22.615 -7.335,22.052 -6.815,20 -6.296,17.952 -5.987,15.607 -6.002,13.466 -6.014,11.911 -5.782,10.19 -5.984,8.651 -6.167,7.264 -7.658,5.262 -6,4"
             style="fill:#504b78;fill-opacity:1;fill-rule:nonzero;stroke:none"
             id="path289"
             inkscape:connector-curvature="0" />
        </g>
        <g
           id="g291"
           transform="translate(112.6655,357.7236)">
          <path
             d="m 0,0 0.05,-0.39 c -0.733,0.841 -2.361,0.248 -3.368,0.523 -1.98,0.54 -4.167,1.591 -6,2.517 -2.353,1.192 -4.867,2.103 -7.182,3.315 -1.053,0.553 -1.991,1.415 -2.999,2.051 -1.321,0.834 -2.648,1.251 -4.017,1.964 -3.602,1.88 -7.061,3.977 -10.648,5.854 -3.005,1.572 -6.144,2.839 -9.172,4.331 -2.51,1.236 -4.892,2.709 -7.294,4.018 -1.197,0.652 -1.893,0.652 -2.869,1.652 -0.758,0.778 -1.514,1.604 -2.321,2.332 -0.974,0.879 -2.145,1.498 -3.01,2.463 -0.894,0.996 -1.271,2.243 -1.985,3.222 -0.573,0.784 -1.4,1.36 -1.703,2.298 -0.375,1.159 -1.166,3.305 -0.848,4.551 0.317,1.239 0.717,1.807 0.699,3.299 -0.006,0.586 -0.17,1.472 -0.034,2.034 0.146,0.604 0.59,0.66 0.736,1.265 0.3,1.247 -0.247,2.625 0.115,3.884 0.292,1.011 1.306,1.953 1.998,2.785 1.052,1.264 1.464,2.729 2.353,4.064 0.55,0.824 1.357,1.385 1.998,2.135 1.502,1.76 1.825,4.004 2.671,5.997 1.842,4.342 3.952,9.002 6.331,13.135 1.261,2.191 1.95,4.643 2.999,6.865 0.444,0.939 0.905,1.686 1.5,2.503 0.796,1.091 1.72,1.668 2.686,2.649 0.515,0.524 0.745,1.031 1.277,1.514 0.571,0.519 1.326,0.847 1.904,1.353 0.879,0.768 1.747,1.278 2.669,1.982 0.731,0.558 1.164,1.651 2.098,1.882 1.231,0.306 3.642,-0.973 4.715,-1.548 0.996,-0.534 1.741,-1.274 2.653,-1.83 0.881,-0.538 1.757,-0.888 2.63,-1.486 2.123,-1.456 4.534,-3.397 6.852,-4.35 5.697,-2.342 11.289,-5.203 17.183,-6.999 2.783,-0.849 5.608,-2.017 8,-3.668 3.085,-2.13 6.644,-3.658 10,-5.333 3.568,-1.782 7.21,-3.324 10.83,-4.981 2.975,-1.363 5.667,-3.499 8.654,-4.684 C 46.414,60.685 51.979,56.846 58,53.835 63.817,50.927 69.889,48.927 75.201,45.147 79.307,42.227 85.895,42.744 90,40 c 5.311,-3.55 11.195,-4.691 16.667,-8 1.431,-0.865 1.826,-3.739 3.331,-4.502 1.33,-0.674 2.672,-1.324 4.002,-1.998 3.028,-1.533 6.356,-2.591 9.481,-3.984 6.077,-2.707 11.963,-6.22 17.837,-9.351 5.873,-3.131 12.436,-4.925 18.048,-8.667 0.72,-0.48 1.747,-1.296 2,-2.133 0.191,-0.635 -0.217,-1.421 -0.067,-2.066 0.137,-0.59 0.542,-0.689 0.72,-1.265 0.331,-1.073 1.052,-2.93 1.179,-4.05 0.135,-1.186 -0.562,-2.38 -1.034,-3.482 -2.004,-4.682 -3.983,-9.761 -6.665,-13.984 -0.804,-1.264 -1.051,-2.544 -1.63,-3.852 -0.565,-1.272 -1.856,-2.87 -2.686,-4 -0.556,-0.756 -1.325,-1.27 -1.887,-2 -0.486,-0.634 -0.692,-1.471 -1.259,-2.034 -0.584,-0.581 -1.31,-0.668 -1.887,-1.265 -0.638,-0.661 -1.019,-1.814 -1.65,-2.551 -1.802,-2.106 -4.547,-3.517 -6.336,-5.633 -2.106,-2.492 -3.784,-5.439 -6.166,-7.702 -1.828,-1.735 -3.873,-3.377 -5.982,-4.815 -1.124,-0.766 -2.641,-1.819 -4.014,-2.034 -0.64,-0.101 -1.212,0.021 -1.854,-0.114 -0.725,-0.153 -1.109,-0.75 -2.15,-0.55 -1.479,0.285 -2.411,0.733 -3.996,0.7 -1.362,-0.027 -2.09,0.416 -3.32,0.665 -3.658,0.74 -7.067,2.239 -10.517,3.834 -7.446,3.441 -15.229,6.395 -22.165,10.685 -1.323,0.818 -2.68,1.241 -4.148,1.631 -1.824,0.487 -3.363,1.663 -5.039,2.517 -3.083,1.568 -6.524,2.969 -9.464,4.797 -3.358,2.087 -6.928,4.198 -10.663,5.702 -1.682,0.677 -3.136,1.293 -4.686,2.185 -1.424,0.819 -3.167,1.093 -4.534,2.147 -1.808,1.395 -2.858,3.296 -4.799,4.502 -0.842,0.522 -2.231,0.985 -2.863,1.819 -0.835,1.104 -0.47,2.803 -0.471,4.181 0,1.33 -0.047,2.671 0.003,4 0.061,1.641 0.608,3.027 0.68,4.669 0.086,1.998 -0.382,3.463 -0.717,5.347 -0.114,0.642 0.178,1.339 0.069,1.984 C 31.203,2.309 30.492,2.95 30.617,4 c 0.17,1.434 0.727,2.446 0.716,4 -0.009,1.333 0,2.667 0,4 0,1.323 0.087,2.68 0.016,4 -0.08,1.483 -0.899,2.89 -1.203,4.148 C 29.394,23.263 28.06,27.997 24,28.031 22.595,28.043 20.95,26.371 19.836,25.516 18.501,24.49 17.383,23.042 16.165,21.835 13.732,19.424 11.346,16.561 9.516,13.814 8.563,12.384 7.636,10.739 6.667,9.335 6.219,8.688 5.688,8.044 5.317,7.35 5.169,7.073 4.589,5.253 4.651,4.909 4.656,5.051 4.661,5.191 4.667,5.333"
             style="fill:#231f20;fill-opacity:1;fill-rule:nonzero;stroke:none"
             id="path293"
             inkscape:connector-curvature="0" />
        </g>
        <g
           id="g295"
           transform="translate(540.666,485.7236)">
          <path
             d="m 0,0 c -2.883,0.059 -4.757,-1.71 -7.336,-2.501 -1.234,-0.378 -2.711,-0.501 -3.85,-0.963 -1.192,-0.483 -2.509,-1.715 -3.645,-2.388 -0.868,-0.514 -1.868,-0.697 -2.686,-1.299 -0.737,-0.542 -1.22,-1.461 -1.948,-2.017 -2.049,-1.569 -4.173,-2.807 -6.034,-4.667 -4.147,-4.145 -8.636,-8.002 -12.682,-12.017 -1.795,-1.78 -3.346,-3.699 -5.153,-5.481 -2.11,-2.084 -4.45,-4.311 -6.166,-6.652 -3.563,-4.862 -7.277,-9.739 -10.664,-14.682 -3.546,-5.177 -6.173,-10.94 -9.669,-16.148 -0.815,-1.215 -1.235,-2.648 -2.002,-3.886 -0.593,-0.956 -1.416,-1.832 -2,-2.778 -1.561,-2.529 -3.143,-5.03 -4.165,-7.855 -0.981,-2.712 -2.176,-5.386 -3.332,-8.034 -1.109,-2.544 -1.834,-5.312 -2.816,-7.966 -0.987,-2.666 -2.2,-5.248 -3.02,-7.984 -1.064,-3.55 -1.745,-7.157 -2.832,-10.702 -0.949,-3.093 -1.271,-6.246 -2.146,-9.311 -0.385,-1.349 -0.684,-2.648 -1.04,-4.003 -0.193,-0.737 -0.099,-1.255 -0.13,-2 -0.043,-1.042 -0.544,-1.674 -0.718,-2.666 -0.434,-2.468 0.034,-5.482 0.034,-8 v -8.667 c 0,-2.667 0.005,-5.335 0,-8.002 -0.003,-1.706 0.159,-3.057 0.521,-4.645 0.382,-1.691 0.838,-3.623 0.81,-5.353 -0.026,-1.543 0.149,-2.573 0.521,-4 0.339,-1.304 0.06,-2.661 0.132,-4 0.077,-1.412 0.605,-2.548 0.664,-4 0.036,-0.868 0.329,-1.204 0.537,-2 0.241,-0.924 -0.04,-1.757 0.114,-2.667 0.126,-0.742 0.604,-1.259 0.735,-2 0.112,-0.626 -0.08,-1.362 -0.05,-2 0.07,-1.437 0.707,-2.508 0.68,-4 -0.03,-1.583 0.442,-2.523 0.703,-4 0.112,-0.626 -0.08,-1.362 -0.05,-2 0.051,-1.038 0.549,-1.676 0.717,-2.666 0.111,-0.65 -0.179,-1.351 -0.068,-2 0.125,-0.742 0.603,-1.26 0.734,-2 0.112,-0.627 -0.08,-1.363 -0.05,-2 0.042,-0.861 0.343,-1.212 0.537,-2 0.718,-2.918 1.072,-5.802 1.982,-8.667 1.786,-5.618 2.384,-11.36 4.998,-16.667 1.018,-2.064 2.387,-4.781 4.316,-6.183 1.981,-1.438 4.26,-2.833 6.331,-4.3 4.072,-2.886 7.514,-6.676 11.852,-8.85 1.895,-0.949 4.057,-1.675 5.852,-2.834 1.293,-0.835 2.004,-0.946 3.482,-1.312 0.788,-0.195 1.135,-0.501 1.997,-0.539 0.981,-0.043 1.403,-0.313 2.151,-0.502 2.404,-0.609 4.977,-0.708 7.185,-1.48 1.149,-0.402 2.159,-0.383 3.383,-0.646 0.978,-0.212 1.234,-0.694 2.619,-0.685 2.675,0.018 4.905,-0.23 7.334,-0.632 1.468,-0.244 2.425,-0.712 3.997,-0.703 1.467,0.009 3.231,-0.287 4.667,-0.034 3.729,0.656 7.481,2.279 11.317,2.7 2.848,0.313 5.764,1.175 8.502,2.003 4.036,1.22 8.229,1.839 12.181,3.315 15.432,5.765 29.709,14.805 46,18.177 3.968,0.821 7.948,1.743 12.034,1.859 3.584,0.099 7.081,0.662 10.633,1.165 3.58,0.506 7.607,0.898 11.217,0.815 3.389,-0.077 6.697,0.694 10.132,0.65 4.212,-0.053 8.546,1.278 12.631,2.05 1.533,0.29 3.154,-0.285 4.686,0.114 1.626,0.424 2.921,0.525 4.667,0.519 2.602,-0.009 5.044,0.4 7.317,1.481 2.604,1.238 5.338,2.111 7.85,3.352 4.382,2.165 7.398,7.389 8.981,11.834 0.981,2.753 2.691,5.263 3.704,8 0.477,1.289 0.909,2.688 1.315,4 0.193,0.624 0.542,1.391 0.685,1.997 0.161,0.682 0.565,1.629 0.667,2.151 1.153,5.953 2.238,11.892 3.333,17.886 0.952,5.21 0.148,11.309 0.148,16.632 v 8 c 0,1.047 -0.386,2.946 0.136,3.867 0.664,1.176 2.647,1.62 3.716,2.298 4.28,2.717 8.849,4.424 12.849,7.687 2.323,1.895 4.759,3.635 6.466,6.151 1.706,2.514 3.35,4.91 4.981,7.296 1.961,2.868 3.28,6.066 4.519,9.368 0.581,1.549 0.956,3.108 1.316,4.667 0.443,1.914 1.866,3.496 2.536,5.333 1.113,3.051 1.927,6.257 2.669,9.333 0.377,1.568 0.728,3.053 0.794,4.667 0.068,1.632 0.701,2.945 0.685,4.667 -0.006,0.657 -0.051,1.345 -0.016,2 0.057,1.035 0.542,1.677 0.716,2.666 0.216,1.226 0.275,3.438 -0.653,4.196 -1.506,1.233 -2.699,0.086 -4.013,-0.23 -1.366,-0.329 -3.95,0.845 -4.899,-0.503 -0.226,-0.064 -0.382,0.007 -0.469,0.21 -0.086,-0.203 -0.242,-0.273 -0.468,-0.21 -0.517,0.744 -2.657,0.828 -3.532,1.056 -1.338,0.348 -2.799,0.296 -4.034,-0.336 -2.403,-1.23 -4.846,-1.722 -7.333,-2.849 -0.469,-0.212 -0.757,-0.586 -1.265,-0.701 -0.657,-0.151 -1.412,0.221 -2.069,0.068 -1.064,-0.246 -2.141,-0.945 -3.296,-1.221 -1.2,-0.287 -2.161,-0.683 -3.32,-0.829 -1.632,-0.204 -3.1,-0.252 -4.683,-0.632 -2.452,-0.589 -4.752,-1.706 -7.349,-1.368 -1.272,0.166 -1.942,0.606 -3.32,0.665 -0.862,0.038 -1.207,0.335 -1.997,0.536 -0.91,0.231 -1.753,0.081 -2.665,0.298 -2.145,0.513 -3.581,2.46 -5.352,3.685 -1.957,1.353 -3.739,2.871 -5.319,4.668 -0.99,1.127 -2.356,2.201 -3.198,3.497 -0.719,1.107 -1.228,2.375 -1.95,3.467 -2.025,3.059 -2.874,6.673 -4.667,9.867 -1.376,2.45 -2.353,4.877 -3.683,7.349 -1.247,2.315 -2.619,4.381 -3.998,6.616 -0.668,1.083 -1.209,2.311 -1.833,3.368 -0.65,1.104 -0.579,1.934 -0.817,3.185 -0.546,2.875 -3.111,5.286 -5.185,7.466 -2.808,2.952 -4.988,6.602 -7.998,9.362 -1.177,1.08 -2.279,2.027 -3.355,3.175 -1.258,1.344 -2.378,1.993 -3.98,2.96 -3.843,2.322 -7.507,4.602 -11.498,6.683 -1.961,1.022 -3.919,1.928 -5.816,3.003 -2.082,1.179 -4.395,2.19 -6.702,2.685 -1.594,0.341 -3.071,0.946 -4.651,1.331 -0.722,0.175 -1.299,0 -2,0.113 -0.991,0.161 -1.625,0.679 -2.667,0.722 -3.363,0.138 -6.728,1.188 -9.984,2.148 -3.626,1.07 -7.01,2.358 -10.717,3.019 -1.497,0.266 -3.094,0.173 -4.632,0.15 C 37.447,-0.692 35.931,0.022 34,0 32.273,-0.02 30.971,0.593 29.333,0.682 27.571,0.777 25.766,0.667 24,0.667 c -1.463,0 -3.236,-0.287 -4.667,-0.035 -0.969,0.17 -1.675,0.592 -2.667,0.701 -0.94,0.104 -1.59,0.171 -2.449,0.686 1.142,-0.274 2.231,1.426 2.951,2.146 1.344,1.344 2.188,1.85 2.163,3.837 -0.026,1.997 -0.026,4.001 0,5.998 0.03,2.412 -1.136,3.928 -2.016,6 -1.711,4.028 -3.155,8.478 -5.834,12.034 -2.734,3.632 -5.685,6.863 -9.333,9.482 -0.729,0.524 -1.196,1.012 -2.148,1.18 -1.058,0.187 -1.395,-0.349 -2.146,-0.55 -1.57,-0.42 -2.875,-0.618 -4.019,-1.965 -2.286,-2.696 -1.118,-8.108 -1.167,-11.512 -0.027,-1.974 1.041,-3.372 1.369,-5.334 0.28,-1.676 0.291,-3.738 1.463,-5.202 0.402,-0.502 0.906,-0.931 1.314,-1.434 0.357,-0.449 0.697,-0.91 1.02,-1.384 0.365,-0.494 1.057,-1.022 1.367,-1.479 0.597,-0.877 1.341,-3.01 2.682,-3.086 0.49,0.911 -0.975,2.399 -1.384,3.252 -0.689,1.436 -1.634,2.637 -2.663,3.847 -1.85,2.178 -4.571,4.393 -7.17,5.682 -1.359,0.675 -2.595,0.25 -4,0.617 -0.795,0.208 -1.135,0.492 -2,0.534 -0.935,0.045 -1.749,-0.106 -2.666,0.133 -1.435,0.373 -2.459,0.489 -3.998,0.516 -1.868,0.032 -2.615,-0.591 -2.034,-2.699 0.65,-2.356 3.281,-4.517 4.55,-6.632 0.348,-0.581 0.687,-1.253 0.998,-1.85 0.113,-0.215 0.468,-1.206 0.616,-1.352 0.264,-0.262 1.033,-0.36 1.384,-0.615 0.484,-0.351 0.822,-0.948 1.283,-1.336 2.423,-2.04 4.81,-4.077 7.349,-5.995 1.167,-0.882 2.383,-1.747 3.704,-2.366 0.744,-0.349 2.585,-1.41 3.481,-1.153"
             style="fill:#504b78;fill-opacity:1;fill-rule:nonzero;stroke:none"
             id="path297"
             inkscape:connector-curvature="0" />
        </g>
        <g
           id="g299"
           transform="translate(615,394.3896)">
          <path
             d="m 0,0 c 0,-0.123 15.669,-1.66 15.668,-1.665 0.234,-0.322 0.772,-0.299 1.315,-0.356 0.461,0.033 0.922,0.051 1.384,0.055 0.363,-0.043 0.623,-0.227 0.78,-0.555 1.605,-0.406 3.242,-0.689 4.683,-1.315 1.495,-0.65 2.877,-0.933 4.336,-1.663 1.273,-0.638 2.184,-1.654 3.482,-2.336 2.803,-1.471 4.976,-4.08 7.351,-6.165 2.875,-2.523 6.164,-4.242 8.701,-7.349 1.101,-1.346 2.077,-2.707 3.281,-3.984 1.199,-1.271 1.82,-2.532 2.85,-3.867 2.134,-2.766 3.607,-5.516 5.166,-8.667 3.421,-6.914 7.802,-13.077 11.187,-19.985 0.871,-1.777 1.36,-3.695 2.296,-5.444 0.952,-1.777 1.888,-3.571 2.371,-5.554 0.704,-2.887 0.12,-7.968 0.816,-10.817 0.742,-3.031 1.007,-5.86 1,-9 -0.003,-1.333 0.02,-4.335 0,-5.667 -0.021,-1.489 0.235,-4.231 0.333,-5.666 0.227,-3.356 1.063,-5.335 0.667,-8.667 -0.19,-1.601 -1.347,-2.639 -1.333,-4.333 0.012,-1.351 -0.667,-3.362 -1,-4.667 -1.688,-6.611 0.111,-9.846 -2.483,-16.33 -0.953,-2.379 -2.571,-4.512 -3.834,-6.65 -1.371,-2.32 -3.625,-4.461 -5.184,-6.832 -1.427,-2.172 -2.975,-4.286 -4.332,-6.486 -0.67,-1.087 -1.132,-2.35 -1.835,-3.366 -0.206,-0.297 -0.671,-0.839 -0.853,-1.15 -0.184,-0.319 -0.382,-1.098 -0.597,-1.353 -1.608,-1.906 -4.588,-3.196 -6.534,-4.8 -1.224,-1.008 -2.174,-2.307 -3.498,-3.196 -1.186,-0.797 -2.569,-1.031 -3.852,-1.673 -2.736,-1.368 -5.332,-2.997 -8.036,-4.311 -1.863,-0.907 -3.872,-2.432 -5.927,-2.889 -0.469,0.025 -0.937,0.05 -1.407,0.074 -0.361,-0.046 -0.62,-0.231 -0.778,-0.556 -0.664,-0.134 -1.165,-0.1 -1.854,-0.13 -1.308,-0.057 -2.707,-0.538 -3.995,-0.833 -1.091,-0.25 -2.339,-0.823 -3.32,-1.166 -1.341,-0.469 -2.693,-0.898 -4.032,-1.371 -2.427,-0.858 -5.199,-0.923 -7.836,-1.463 -0.334,-0.069 -0.999,-0.423 -1.465,-0.518 -0.715,-0.145 -1.312,-0.334 -2.016,-0.519 -1.326,-0.346 -2.679,0.119 -4,-0.114 -0.99,-0.174 -1.632,-0.66 -2.667,-0.717 -0.656,-0.035 -1.342,0.013 -2,0.016 -1.332,0.005 -2.666,-0.021 -3.998,-0.002 -1.405,0.02 -2.036,-0.511 -3.319,-0.68 -1.27,-0.167 -2.732,-0.005 -4.016,0.014 -1.692,0.024 -2.975,-0.675 -4.667,-0.663 -1.569,0.012 -2.529,0.44 -4,0.699 -2.685,0.473 -5.936,-0.034 -8.667,-0.034 h -17.333 -8.667 c -1.333,0 -2.666,0.008 -4,0 -1.574,-0.009 -2.529,0.451 -4,0.7 -0.909,0.154 -1.742,-0.127 -2.666,0.114 -0.794,0.207 -1.132,0.499 -1.998,0.537 -1.377,0.059 -2.047,0.497 -3.32,0.665 -2.557,0.336 -5.557,-0.653 -8.05,-0.05 -0.752,0.181 -1.133,0.534 -1.95,0.7 -0.752,0.152 -1.264,0.265 -2.016,0.503 -1.416,0.449 -2.541,0.975 -3.85,1.68 -1.943,1.047 -3.583,2.508 -5.302,3.982 -1.087,0.931 -2.22,1.486 -3.498,1.999 -1.27,0.509 -2.273,0.458 -3.35,1.32 -1.976,1.584 -3.24,3.739 -4.833,5.667 -0.983,1.19 -2.077,2.343 -3.017,3.516 -0.838,1.048 -0.943,2.161 -1.483,3.368 -0.94,2.101 -1.298,4.446 -2.166,6.614 -1.968,4.912 -3.167,10.025 -3.167,15.351 0,2.889 -0.002,5.778 0,8.667 0.001,1.315 -0.176,2.729 0.148,4 0.335,1.315 0.98,2.645 1.219,4 0.265,1.5 -0.249,3.166 -0.05,4.683 0.082,0.621 0.446,1.031 0.535,1.465 0.129,0.635 0.006,1.224 0.111,1.854 0.428,2.558 1.521,4.789 2.037,7.347 0.501,2.482 1.393,4.723 2.02,7.318 0.315,1.308 0.488,2.662 0.794,3.997 0.131,0.572 0.489,1.271 0.683,1.855 0.06,0.18 0.426,1.375 0.486,1.5 2.198,4.514 4.941,8.548 6.685,13.314 0.966,2.637 1.666,5.561 2.813,7.984 1.072,2.264 2.264,4.328 3.351,6.517 1.953,3.933 4.64,4.814 7.502,8.165 2.791,3.267 4.114,10.597 7.648,13.315 2.341,1.801 3.888,4.187 6.02,6.167 1.816,1.687 3.389,3.572 5.166,5.351 1.57,1.571 3.009,3.138 4.851,4.336 1.078,0.701 2.279,1.28 3.346,2 0.425,0.287 0.714,0.747 1.116,1.015 0.407,0.271 0.999,0.36 1.371,0.632 0.993,0.728 1.699,1.291 2.814,1.852 0.932,0.468 1.701,0.818 2.5,1.5 0.711,0.608 1.273,1.394 1.986,1.998 0.872,0.739 1.843,1.2 2.681,2 1.705,1.629 3.876,2.866 6.017,4.018 0.845,0.456 1.479,1.222 2.281,1.686 0.489,0.284 1.179,0.141 1.723,0.277 0.646,0.162 21.158,7.136 22.147,6.853 z"
             style="fill:#ebe9cf;fill-opacity:1;fill-rule:nonzero;stroke:none"
             id="path301"
             inkscape:connector-curvature="0" />
        </g>
        <g
           id="g303"
           transform="translate(517.667,342.7227)">
          <path
             d="m 0,0 c 0.079,-0.427 0.68,-0.934 0.909,-1.327 0.511,-0.871 0.944,-1.688 1.406,-2.589 0.73,-1.418 2.672,-3.505 4.351,-3.767 1.23,-0.192 2.388,0.024 3.667,0.016 0.789,-0.005 1.263,0.222 2,0.352 0.715,0.126 1.603,-0.018 2.333,-0.018 1.266,0 2.77,0.217 3.992,-0.074 0.488,-0.116 0.72,-0.255 1.268,-0.268 0.317,-0.007 0.76,0.092 1.073,0.026 0.365,-0.079 0.632,-0.306 1.001,-0.369 0.454,-0.077 0.871,0.065 1.333,-0.056 0.721,-0.189 1.236,-0.209 2,-0.251 0.718,-0.04 1.255,-0.351 2,-0.341 1.437,0.019 2.737,-0.167 3.934,-1.083 0.972,-0.746 1.402,-2.176 1.658,-3.325 0.336,-1.512 0.26,-3.784 0.065,-5.258 -0.106,-0.812 -0.015,-1.23 -0.408,-2.001 -0.307,-0.604 -0.579,-1.065 -1,-1.576 -0.501,-0.608 -0.968,-1.27 -1.591,-1.775 -0.762,-0.616 -1.322,-1.361 -2.056,-1.984 -0.477,-0.404 -0.867,-0.581 -1.277,-1.071 -0.372,-0.446 -0.515,-0.84 -0.992,-1.195 -0.719,-0.536 -1.348,-1.191 -2.074,-1.741 -0.397,-0.3 -0.869,-0.455 -1.267,-0.731 -0.367,-0.255 -0.616,-0.618 -0.992,-0.862 -0.836,-0.54 -1.879,-0.79 -2.675,-1.381 -0.736,-0.549 -1.19,-1.3 -2,-1.774 -0.561,-0.33 -1.023,-0.637 -1.659,-0.827 -0.661,-0.198 -1.333,-0.666 -1.999,-0.768 -0.791,-0.12 -1.533,-0.219 -2.326,-0.389 -1.434,-0.308 -2.763,-1.237 -4.258,-1.269 -0.803,-0.017 -1.394,-0.222 -2.166,-0.342 -0.73,-0.112 -1.52,0.135 -2.251,0.036 -1.702,-0.233 -3.341,-0.699 -5.082,-0.684 -0.883,0.008 -1.768,-0.027 -2.649,-0.009 -1.227,0.027 -2.328,0.437 -3.528,0.601 -1.705,0.233 -3.44,0.495 -5.074,1.065 -0.889,0.311 -1.743,0.675 -2.658,0.925 -1.182,0.323 -2.452,0.403 -3.601,0.826 -2.1,0.775 -3.606,2.036 -5.399,3.325 -1.302,0.935 -2.296,2.176 -3.4,3.313 -2.644,2.724 -4.091,6.162 -5.608,9.62"
             style="fill:#504b78;fill-opacity:1;fill-rule:nonzero;stroke:none"
             id="path305"
             inkscape:connector-curvature="0" />
        </g>
        <g
           id="g307"
           transform="translate(600.333,433.0562)">
          <path
             d="m 0,0 c -0.433,0.342 -0.858,0.747 -1.317,0.999 -0.568,0.312 -1.403,0.441 -2.016,0.593 -0.698,0.174 -1.299,0.149 -1.999,0.409 -0.796,0.296 -1.499,0.747 -2.343,0.925 -1.366,0.287 -2.557,0.407 -3.991,0.407 -1.444,0 -2.89,0.021 -4.334,10e-4 -0.734,-0.009 -1.277,0.257 -1.982,0.34 -0.833,0.098 -1.76,-0.007 -2.603,-0.007 -1.912,0 -3.825,0 -5.738,0 -1.714,-10e-4 -3.365,-0.268 -5.02,-0.593 -0.8,-0.157 -1.528,-0.119 -2.304,-0.333 -0.989,-0.273 -2.084,0.029 -3.093,-0.149 -3.808,-0.67 -7.573,-1.188 -11.341,-2.259 -1.597,-0.453 -3.088,-0.836 -4.585,-1.584 -1.444,-0.722 -2.888,-1.446 -4.334,-2.165 -1.07,-0.532 -2.154,-1.056 -2.916,-1.983 -0.379,-0.46 -0.541,-1.034 -0.824,-1.519 -0.35,-0.599 -0.849,-1.117 -1.177,-1.74 -0.291,-0.55 -0.564,-1.053 -0.832,-1.592 -0.109,-0.221 -0.229,-0.422 -0.333,-0.668 -0.089,-0.21 -0.158,-0.564 -0.241,-0.758 -0.557,-1.305 -0.677,-2.497 -0.677,-3.991 0,-1.472 -0.289,-3.258 0.074,-4.666 0.376,-1.459 0.774,-2.912 1.334,-4.341 0.232,-0.59 0.719,-1.081 1.008,-1.66 0.334,-0.666 0.532,-1.33 0.825,-1.999 0.544,-1.245 1.194,-2.496 1.676,-3.742 1.17,-3.019 3.408,-5.296 5.165,-7.925 0.585,-0.875 1.376,-1.808 2.243,-2.416 1.152,-0.806 2.414,-1.018 3.693,-1.584 1.188,-0.528 2.454,-0.962 3.65,-1.583 0.831,-0.431 1.481,-0.271 2.34,-0.492 0.809,-0.208 1.455,-0.258 2.326,-0.258 h 4.685 c 1.667,0 3.604,-0.268 5.233,0.074 1.586,0.333 3.197,0.437 4.747,0.851 0.629,0.168 1.349,0.078 2.001,0.075 0.862,-0.006 1.515,0.242 2.334,0.333 0.708,0.079 1.262,0.345 2,0.333 0.77,-0.014 1.286,0.074 2,0.259 0.368,0.097 0.627,0.05 1,0.066 0.432,0.017 0.604,0.172 1,0.268 0.847,0.209 1.492,0.313 2.259,0.824 1.33,0.886 2.642,2.06 3.667,3.25 1.263,1.467 2.799,2.906 3.656,4.667 1.933,3.968 3.191,8.119 4.501,12.333 0.267,0.857 0.688,1.695 0.843,2.592 0.173,1.004 0.223,2.105 0.481,3.075 0.161,0.606 0.263,0.917 0.258,1.592 -0.003,0.416 -0.102,1.002 -0.017,1.408 0.106,0.497 0.334,0.812 0.36,1.333 0.022,0.467 -0.053,0.875 0.066,1.333 0.237,0.909 0.266,1.694 0.259,2.667 -0.006,0.918 0.344,1.46 0.332,2.334 -0.012,0.853 0.104,1.771 -0.073,2.592 -0.162,0.079 -0.255,0.209 -0.277,0.39 0.003,0.231 0.012,0.462 0.027,0.693 -0.053,0.429 -0.147,0.565 -0.304,0.916 0.099,0.025 0.197,0.05 0.295,0.075"
             style="fill:#231f20;fill-opacity:1;fill-rule:nonzero;stroke:none"
             id="path309"
             inkscape:connector-curvature="0" />
        </g>
        <g
           id="g311"
           transform="translate(628.667,436.0562)">
          <path
             d="M 0,0 C -1.523,0.198 -2.601,-1.182 -3.249,-2.351 -3.997,-3.699 -4,-4.769 -4,-6.333 c 0,-1.334 0.003,-2.667 0,-4 -0.002,-0.764 0.021,-1.289 0.251,-2 0.254,-0.788 0.59,-1.6 0.759,-2.401 0.406,-1.931 0.657,-3.801 1.572,-5.599 0.655,-1.287 1.14,-2.687 1.668,-4.009 0.464,-1.16 0.789,-2.415 1.075,-3.658 0.157,-0.685 0.549,-1.318 0.758,-2 0.277,-0.906 0.655,-1.792 1.009,-2.674 1.067,-2.671 3.059,-5.268 5.582,-6.75 1.162,-0.684 2.043,-1.075 3.335,-1.234 0.637,-0.078 0.97,-0.304 1.658,-0.334 0.432,-0.018 0.604,-0.167 0.999,-0.267 0.456,-0.116 0.878,-0.033 1.334,-0.149 2.872,-0.729 6.398,-0.26 9.407,-0.259 1.746,0.001 3.439,0.628 5.185,0.259 1.077,-0.226 1.581,-0.21 2.666,0 0.823,0.16 1.658,-0.009 2.482,0.149 0.632,0.121 1.312,0.18 1.926,0.333 0.576,0.142 1.118,0.487 1.649,0.61 0.324,0.074 0.691,-0.091 1.018,-0.035 0.365,0.063 0.64,0.275 1,0.36 0.838,0.197 1.255,0.41 1.999,0.908 1.082,0.725 1.897,2.183 2.426,3.416 0.686,1.601 1.202,3.282 1.657,4.983 0.54,2.014 0.956,4.045 1.333,6.092 0.222,1.205 0.267,2.38 0.511,3.584 0.265,1.312 -0.049,2.683 0.064,4.008 0.369,4.287 0.056,8.964 -1.23,13.1 -0.389,1.248 -0.633,3.074 -1.835,3.834 C 45.706,0.283 44.94,0.262 44.333,0.406 43.753,0.545 43.218,0.891 42.684,1.017 42.157,1.142 41.533,0.889 41,0.983 c -0.678,0.12 -1.342,0.445 -2,0.609 -1.542,0.385 -3.154,0.54 -4.751,0.723 -2.329,0.267 -4.537,1.031 -6.916,1.018 -2.774,-0.017 -5.549,0 -8.324,0 h -4.601 c -1.217,0 -2.551,0.151 -3.75,-0.075 C 9.673,3.072 8.612,2.866 7.65,2.584 7.04,2.407 6.322,2.334 5.768,1.983 5.956,1.995 6.145,2 6.333,2"
             style="fill:#231f20;fill-opacity:1;fill-rule:nonzero;stroke:none"
             id="path313"
             inkscape:connector-curvature="0" />
        </g>
        <g
           id="g315"
           transform="translate(602,414.7227)">
          <path
             d="m 0,0 c 0.687,0.211 1.191,0.783 1.918,1.009 0.898,0.279 1.864,0.446 2.757,0.732 0.774,0.248 1.538,0.649 2.324,0.851 0.73,0.187 1.577,0.075 2.334,0.075 1.398,0 2.62,0.234 4,0.325 0.742,0.049 1.241,0.474 2,0.266 C 16.144,3.035 16.789,3 17.659,3 c 0.779,0 1.56,-0.006 2.34,0 0.746,0.005 1.025,-0.15 1.65,-0.343 1.31,-0.402 2.854,-0.433 3.934,-1.409 0.78,-0.704 1.126,-1.964 1.5,-2.907 0.248,-0.625 0.599,-1.33 0.6,-2.008 0,-0.438 -0.175,-0.604 -0.276,-1 -0.115,-0.455 -0.036,-0.877 -0.148,-1.333 -0.305,-1.238 -0.878,-1.982 -1.518,-3.082 -0.679,-1.165 -1.268,-2.49 -2.14,-3.567 -0.86,-1.061 -2.226,-2.671 -3.583,-3.034 -0.317,-0.085 -0.695,0.088 -1.018,0.034 -0.371,-0.064 -0.63,-0.303 -1,-0.369 -0.646,-0.113 -1.706,-0.071 -2.333,0.092 -0.389,0.101 -0.582,0.232 -1,0.268 -0.363,0.031 -0.646,-0.067 -1.008,0.057 -0.459,0.159 -1.027,0.583 -1.419,0.842 -1.074,0.713 -1.95,1.641 -2.888,2.501 -1.198,1.098 -2.174,2.514 -3.334,3.665 -0.634,0.629 -1.268,1.058 -2.026,1.5 -0.697,0.408 -1.164,1.064 -1.659,1.687 -0.581,0.731 -1.284,1.445 -2,2.054 -0.654,0.557 -1.55,1.774 -1.626,2.628 0.098,0.019 0.195,0.038 0.293,0.057"
             style="fill:#f68453;fill-opacity:1;fill-rule:nonzero;stroke:none"
             id="path317"
             inkscape:connector-curvature="0" />
        </g>
        <g
           id="g319"
           transform="translate(749.333,445.3896)">
          <path
             d="m 0,0 c -0.453,0.594 -1.601,0.326 -2.242,0.332 -1.009,0.009 -2.041,-0.13 -3.017,-0.322 -1.685,-0.333 -3.402,-0.471 -5.082,-0.668 -1.051,-0.123 -2.312,-0.648 -3.317,-1 -1.387,-0.484 -2.641,-1.105 -4.008,-1.601 -1.385,-0.503 -2.641,-1.242 -4,-1.832 -1.37,-0.595 -2.75,-1.064 -3.925,-2.002 -0.799,-0.637 -1.699,-1.499 -2.418,-2.232 -1.186,-1.208 -2.387,-2.614 -3.397,-4.008 -1.014,-1.4 -2.246,-2.617 -3.27,-4 -1.001,-1.354 -1.851,-2.835 -2.739,-4.26 -1.738,-2.787 -1.856,-5.96 -2.668,-9.084 -0.361,-1.39 -0.935,-2.886 -0.916,-4.323 0.021,-1.629 0.346,-3.041 0.333,-4.686 -0.021,-2.759 1.297,-5.815 3.092,-7.915 0.665,-0.779 1.446,-1.417 2.159,-2.148 0.967,-0.993 2.206,-1.002 3.423,-1.503 0.998,-0.411 2.041,-0.662 3.002,-1.072 0.542,-0.232 1.052,-0.452 1.657,-0.602 0.361,-0.089 0.649,0.001 1,-0.055 0.494,-0.081 0.816,-0.332 1.333,-0.361 1.433,-0.078 2.898,0.006 4.333,0.008 0.736,0.001 1.323,-0.06 2.001,0.244 0.799,0.357 1.454,0.588 2.259,0.83 1.217,0.367 2.504,1.072 3.741,1.519 1.52,0.551 2.991,1.229 4.333,2.157 2.559,1.769 5.261,3.35 7.415,5.502 0.936,0.936 2.058,1.776 2.992,2.731 0.645,0.659 1.263,1.364 1.925,2.017 0.707,0.698 1.125,1.478 1.742,2.242 2.729,3.386 4.104,7.418 4.916,11.683 0.349,1.829 0.919,3.623 1.018,5.483 0.106,2.01 0.148,4.222 -0.259,6.168 -0.329,1.57 -0.431,3.297 -1.082,4.775 -0.506,1.149 -1.259,2.2 -1.918,3.334 -1.179,2.027 -3.243,2.371 -5.082,3.316"
             style="fill:#231f20;fill-opacity:1;fill-rule:nonzero;stroke:none"
             id="path321"
             inkscape:connector-curvature="0" />
        </g>
        <g
           id="g323"
           transform="translate(469.667,239.3896)">
          <path
             d="M 0,0 C -1.5,0.027 -2.857,0.539 -4.351,0.682 -5.164,0.76 -5.872,0.357 -6.684,0.325 -7.523,0.292 -8.539,0.526 -9.351,0.351 c -1.337,-0.292 -2.65,-0.558 -3.965,-0.936 -1.815,-0.522 -3.336,-1.458 -5.091,-2.164 -0.859,-0.346 -1.5,-0.641 -2.26,-1.168 -0.752,-0.522 -1.595,-0.692 -2.351,-1.148 -0.702,-0.425 -1.239,-0.955 -1.99,-1.351 -0.692,-0.366 -1.273,-0.837 -2,-1.177 -1.2,-0.562 -2.368,-1.178 -3.584,-1.833 -0.449,-0.241 -0.735,-0.506 -1.141,-0.825 -0.573,-0.45 -1.379,-0.645 -1.934,-1.075 -0.813,-0.632 -1.676,-1.832 -2.251,-2.748 -0.345,-0.551 -0.839,-1.3 -1.017,-1.926 -0.098,-0.348 -0.017,-0.664 -0.13,-1.008 -0.132,-0.404 -0.503,-0.59 -0.617,-0.973 -0.243,-0.827 0.316,-0.88 0.616,-1.419 0.247,-0.446 0.09,-1.395 -0.008,-1.86 -0.113,-0.529 -0.439,-0.992 -0.193,-1.666 0.161,-0.438 0.793,-1.527 1.176,-1.84 0.387,-0.317 0.775,-0.446 1.165,-0.81 0.513,-0.478 0.998,-0.938 1.594,-1.341 1.503,-1.019 2.939,-1.936 4.739,-2.342 0.484,-0.108 0.868,-0.005 1.342,-0.056 0.463,-0.052 0.798,-0.292 1.241,-0.371 0.9,-0.158 1.853,-0.156 2.76,-0.304 2.289,-0.375 4.509,-0.569 6.843,-0.669 0.985,-0.043 2.013,-0.25 2.991,-0.414 0.544,-0.091 0.929,-0.254 1.5,-0.27 0.552,-0.014 1.022,0.043 1.574,-0.065 2.693,-0.529 5.251,-0.024 7.934,0.065 1.984,0.066 3.812,0.932 5.733,1.269 2.175,0.381 4.457,0.747 6.676,0.74 1.171,-0.004 2.18,0.035 3.315,0.26 1.321,0.262 2.663,0.068 4.001,0.325 1.634,0.313 3.292,0.505 4.932,0.841 1.683,0.344 3.416,0.328 5.084,0.639 2.741,0.512 5.401,1.45 8.007,2.362 0.947,0.331 1.785,0.762 2.676,1.24 0.824,0.441 1.406,1.29 2.002,2.008 0.297,0.36 0.884,0.895 1.08,1.317 0.344,0.744 -0.114,0.744 -0.514,1.325 -0.38,0.552 -0.462,1.255 -0.825,1.773 -0.32,0.455 -0.946,0.733 -1.408,0.994 -1.35,0.759 -2.659,1.762 -4.093,2.332 -0.888,0.354 -1.636,-1.511 -2.591,-1.416 -1.001,0.1 -2.343,2.334 -3.351,2.334 -0.62,0 -1.378,-0.125 -1.983,-0.018 -0.364,0.066 -0.621,0.289 -0.982,0.369 -0.405,0.087 -0.952,-0.016 -1.369,-0.018 -0.66,-0.003 -1.321,0.004 -1.982,0 -0.86,-0.005 -1.519,0.218 -2.334,0.333 -3.352,0.475 -6.243,2.382 -8.999,4.252 -2.007,1.361 -4.122,2.769 -6.333,3.832 -2.062,0.992 -3.15,3.446 -5.05,4.773 0.098,-0.114 0.225,-0.177 0.383,-0.19"
             style="fill:#f68453;fill-opacity:1;fill-rule:nonzero;stroke:none"
             id="path325"
             inkscape:connector-curvature="0" />
        </g>
        <g
           id="g327"
           transform="translate(673,232.7227)">
          <path
             d="m 0,0 c -1.678,0 -3.197,-0.069 -4.676,-0.991 -1.751,-1.094 -3.297,-2.447 -4.998,-3.693 -1.565,-1.146 -3.147,-2.635 -4.917,-3.406 -1.771,-0.771 -3.411,-1.727 -5.074,-2.669 -1.182,-0.668 -2.408,-1.366 -3.668,-1.834 -0.66,-0.245 -1.35,-0.397 -2.008,-0.657 -0.694,-0.273 -1.295,-0.659 -1.992,-1.001 -1.29,-0.632 -2.633,-1.463 -3.759,-2.333 -0.901,-0.697 -2.004,-1.436 -2.657,-2.4 -0.729,-1.077 -0.436,-2.337 0.5,-3.265 1.103,-1.095 2.832,-1.57 4.257,-2.083 1.422,-0.512 2.899,-0.758 4.393,-1.075 1.178,-0.25 2.348,-0.656 3.531,-0.852 0.347,-0.057 0.66,-0.066 0.993,-0.147 0.079,-0.163 0.21,-0.256 0.391,-0.28 0.229,0.013 0.457,0.025 0.685,0.038 0.368,-0.062 0.625,-0.304 0.991,-0.371 0.414,-0.074 0.825,0.035 1.26,-0.055 0.82,-0.169 1.621,-0.302 2.415,-0.519 0.748,-0.204 1.631,-0.076 2.407,-0.074 1.256,0.004 2.365,-0.3 3.593,-0.341 4.069,-0.137 8.084,0.187 12,0.934 1.606,0.306 3.432,0.074 5.075,0.074 1.904,0 3.779,0.173 5.582,0.593 0.452,0.105 0.956,-0.059 1.377,0.055 0.289,0.08 0.327,0.271 0.615,0.362 0.632,0.198 1.36,0.233 2.018,0.396 0.672,0.166 1.328,0.349 2,0.52 0.363,0.093 0.644,0.003 1,0.056 0.513,0.079 0.854,0.482 1.333,0.62 1.258,0.361 2.677,0.747 4,0.731 0.791,-0.009 1.262,0.222 2,0.352 0.75,0.131 1.583,-0.123 2.341,-0.026 1.162,0.151 2.45,0.958 3.584,1.424 1.001,0.411 2.297,1.181 3.166,1.826 0.183,0.136 0.3,0.381 0.484,0.516 0.172,0.124 0.557,0.178 0.684,0.299 0.465,0.445 0.549,1.09 0.731,1.601 0.313,0.873 0.349,1.131 0.01,2.008 -0.323,0.836 -0.518,1.564 -1.001,2.333 -0.749,1.189 -1.972,1.831 -2.748,3 -0.377,0.566 -0.7,1.003 -1.252,1.333 -0.625,0.373 -1.324,0.773 -1.999,1.102 -1.152,0.558 -2.729,1.378 -3.999,1.585 -0.665,0.107 -1.024,0.13 -1.66,0.396 -0.779,0.324 -1.485,0.117 -2.267,0.326 -1.115,0.299 -2.397,0.997 -3.407,1.591 -0.627,0.368 -1.004,0.162 -1.685,0.316 -0.584,0.134 -1.292,0.556 -1.908,0.767 -1.383,0.472 -2.942,0.667 -4.408,0.899 -0.843,0.134 -1.531,0.691 -2.334,0.936 C 10.56,-0.949 10.111,-0.74 9.667,-0.649 9.137,-0.542 8.588,-0.766 8.057,-0.61 8.038,-0.518 8.02,-0.425 8,-0.333"
             style="fill:#f68453;fill-opacity:1;fill-rule:nonzero;stroke:none"
             id="path329"
             inkscape:connector-curvature="0" />
        </g>
        <g
           id="g331"
           transform="translate(550.8027,184.0195)">
          <path
             d="m 0,0 c -0.223,-0.946 -1.425,-2.201 -2.284,-2.659 -0.93,-0.495 -2.725,0.061 -3.786,0.185 -2.973,0.348 -5.949,0.696 -8.92,1.041 -1.245,0.147 -2.489,0.291 -3.732,0.437 -1.089,0.128 0.663,0.261 -0.359,0.051 -0.566,-0.117 -0.728,-0.274 -1.383,-0.201 -0.755,0.084 -1.347,-0.164 -2.08,-0.12 -0.696,0.042 -0.404,-3.833 -1.099,-3.748 -0.987,0.12 -1.769,-0.087 -2.701,-0.045 -0.56,0.027 -1.142,0.133 -1.698,0.206 -0.758,0.1 -1.345,-0.149 -2.083,-0.117 -0.535,0.023 -1.119,0.102 -1.613,0.276 -0.299,0.105 -0.27,0.329 -0.714,0.377 -0.392,0.04 -4.284,-0.727 -4.684,-0.647 -1.187,0.235 -1.335,1.927 -2.167,2.833 -0.417,0.451 -0.076,0.851 -0.333,1.334 -0.28,0.525 0.754,0.855 0.409,1.307 -0.125,0.225 -0.237,0.458 -0.336,0.697 -0.185,0.203 -0.471,0.126 -0.661,0.387 -0.567,0.772 0.26,1.172 0.947,1.327 1.313,0.301 2.881,0.652 4.211,0.65 1.266,-0.003 3.32,1.972 4.596,1.798 1.293,-0.176 1.419,-1.142 2.66,-1.179 0.34,0.866 -0.037,1.271 0.933,1.702 0.724,0.324 1.31,0.355 2.05,0.451 0.213,0.026 0.498,0.16 0.777,0.184 0.375,0.034 0.691,0.098 1.061,0.152 0.765,0.112 1.619,-0.111 2.388,-0.2 0.68,-0.08 1.363,-0.15 2.041,-0.237 0.757,-0.099 1.343,0.152 2.081,0.117 0.673,-0.033 -1.691,0.2 -1.02,0.113 0.861,-0.114 1.558,0.192 2.418,0.069 0.76,-0.109 1.344,0.163 2.083,0.118 0.679,-0.04 1.363,-0.166 2.038,-0.245 1.381,-0.161 3.198,-0.023 4.292,-0.946 0.886,-0.744 1.562,-1.627 2.274,-2.565 0.362,-0.47 0.749,-0.83 1.145,-1.263 0.579,-0.634 0.728,-1.722 0.734,-2.578"
             style="fill:#504b78;fill-opacity:1;fill-rule:nonzero;stroke:none"
             id="path333"
             inkscape:connector-curvature="0" />
        </g>
        <g
           id="g335"
           transform="translate(442.5469,312.8428)">
          <path
             d="m 0,0 c -3.928,-4.168 -3.31,-11.484 -2.837,-16.794 0.623,-6.991 2.705,-13.962 5.008,-20.555 2.306,-6.601 5.055,-13.238 9.163,-18.919 3.101,-4.286 8.174,-11.619 14.18,-10.719 0.734,0.11 1.252,0.832 1.473,1.473 1.616,4.679 -3.182,11.272 -5.1,15.414 -2.711,5.854 -5.417,11.688 -7.518,17.795 -2.115,6.152 -3.505,12.512 -5.428,18.713 C 7.476,-8.866 5.957,-2.667 1.633,0.211 1.144,0.536 0.396,0.42 0,0"
             style="fill:#504b78;fill-opacity:1;fill-rule:nonzero;stroke:none"
             id="path337"
             inkscape:connector-curvature="0" />
        </g>
        <g
           id="g339"
           transform="translate(308.75,194.8896)">
          <path
             d="m 0,0 c -1.25,-0.25 -15,-0.5 -15,-0.5 l -9.25,-7.75 18.5,0.5 0.25,-3.5 c 0,0 5.25,-0.5 6,-0.5 0.75,0 4.5,2 4.5,2 l 3.75,5 -0.5,2.25 -5,0.5 z"
             style="fill:#504b78;fill-opacity:1;fill-rule:nonzero;stroke:none"
             id="path341"
             inkscape:connector-curvature="0" />
        </g>
      </g>
    </g>
    <g
       id="g4110"
       clip-path="none" />
    <g
       id="g6103"
       transform="matrix(1.2841963,0,0,1.2841963,-9.742365,-74.819527)">
      <g
         transform="translate(57.734387,57.094076)"
         id="g4122">
        <use
           height="100%"
           width="100%"
           id="use4114"
           xlink:href="#path227"
           y="0"
           x="0"
           style="fill:#504b78;fill-opacity:1;fill-rule:nonzero;stroke:#000000;stroke-width:1.59401238;stroke-linecap:round;stroke-miterlimit:4;stroke-dasharray:none;stroke-opacity:1;paint-order:stroke fill markers" />
        <ellipse
           style="fill:#fef5db;fill-opacity:1;stroke-width:0.26458332"
           id="path2255"
           clip-path="url(#clipPath245)"
           ry="12.269015"
           rx="14.976933"
           cy="218.60043"
           cx="-24.321527" />
      </g>
      <g
         transform="matrix(0.4780677,0,0,0.4780677,8.2559276,110.14944)"
         id="g6075">
        <g
           id="g5159"
           transform="matrix(0.35277777,0,0,-0.35277777,60.015762,299.83523)">
          <path
             d="m 0,0 c 1.322,-0.28 2.766,0.874 4,1.183 1.391,0.347 2.616,0.207 4,0.653 1.362,0.439 2.644,0.642 4,0.977 1.528,0.377 3.096,0.945 4.667,1.222 2.466,0.434 5.482,-0.035 8,-0.035 2.872,0 5.801,0.171 8.666,0.016 1.437,-0.078 2.509,-0.706 4,-0.681 1.543,0.026 2.574,-0.149 4,-0.52 1.328,-0.346 2.672,0.044 4.016,-0.133 1.384,-0.182 2.567,-0.851 3.984,-1.201 2.635,-0.65 5.447,-0.667 8.035,-1.462 0.577,-0.177 0.674,-0.584 1.264,-0.721 0.657,-0.152 1.411,0.216 2.069,0.069 1.086,-0.241 1.942,-1.15 2.763,-1.853 1.513,-1.297 4.022,-3.451 4.568,-5.48 0.655,-2.43 -0.594,-5.94 -1.346,-8.018 -0.387,-1.068 -1.019,-2.543 -1.204,-3.498 -0.276,-1.42 -0.372,-1.919 -1.001,-3.151 -0.702,-1.376 -0.951,-2.695 -1.814,-4.034 -0.987,-1.53 -1.794,-3.164 -2.833,-4.667 -1.413,-2.042 -2.621,-4.008 -3.999,-5.983 -1.52,-2.178 -3.37,-4.077 -4.986,-6.165 -1.682,-2.174 -3.947,-4.57 -6.849,-4.516 -2.886,0.055 -5.78,-0.002 -8.667,-0.002 -1.545,0 -3.125,-0.099 -4.666,-0.016 -1.628,0.088 -2.954,0.666 -4.665,0.68 -1.598,0.012 -2.405,-0.685 -4.004,-0.662 -1.692,0.024 -3.672,-0.316 -5.331,-0.036 -3.647,0.616 -6.401,0.766 -8.959,3.055 -0.478,0.426 -2.321,0.835 -2.664,1.351 -0.309,0.464 3.66,1.125 1.721,2.442 -1.391,0.946 -4.857,1.562 -5.723,2.965 -0.759,1.23 0.224,2.176 -0.641,3.342 -0.644,0.87 -0.275,4.823 -0.919,5.693 -0.834,1.126 -0.831,2.479 -0.815,3.852 0.021,1.841 -0.697,2.919 -0.665,4.669 0.057,3.076 -1.356,5.588 -1.335,8.665 0.01,1.555 0.004,3.111 0,4.666 -0.003,0.73 -0.266,2.025 -0.048,2.701 0.291,0.904 1.44,1.188 2.048,1.966"
             style="fill:#231f20;fill-opacity:1;fill-rule:nonzero;stroke:#504b78;stroke-width:1;stroke-linecap:butt;stroke-linejoin:miter;stroke-miterlimit:10;stroke-dasharray:none;stroke-opacity:1"
             id="path5161"
             inkscape:connector-curvature="0" />
        </g>
        <g
           transform="matrix(-0.35277777,0,0,-0.35277777,46.573524,299.83523)"
           id="g6067">
          <path
             inkscape:connector-curvature="0"
             id="path6065"
             style="fill:#231f20;fill-opacity:1;fill-rule:nonzero;stroke:#504b78;stroke-width:1;stroke-linecap:butt;stroke-linejoin:miter;stroke-miterlimit:10;stroke-dasharray:none;stroke-opacity:1"
             d="m 0,0 c 1.322,-0.28 2.766,0.874 4,1.183 1.391,0.347 2.616,0.207 4,0.653 1.362,0.439 2.644,0.642 4,0.977 1.528,0.377 3.096,0.945 4.667,1.222 2.466,0.434 5.482,-0.035 8,-0.035 2.872,0 5.801,0.171 8.666,0.016 1.437,-0.078 2.509,-0.706 4,-0.681 1.543,0.026 2.574,-0.149 4,-0.52 1.328,-0.346 2.672,0.044 4.016,-0.133 1.384,-0.182 2.567,-0.851 3.984,-1.201 2.635,-0.65 5.447,-0.667 8.035,-1.462 0.577,-0.177 0.674,-0.584 1.264,-0.721 0.657,-0.152 1.411,0.216 2.069,0.069 1.086,-0.241 1.942,-1.15 2.763,-1.853 1.513,-1.297 4.022,-3.451 4.568,-5.48 0.655,-2.43 -0.594,-5.94 -1.346,-8.018 -0.387,-1.068 -1.019,-2.543 -1.204,-3.498 -0.276,-1.42 -0.372,-1.919 -1.001,-3.151 -0.702,-1.376 -0.951,-2.695 -1.814,-4.034 -0.987,-1.53 -1.794,-3.164 -2.833,-4.667 -1.413,-2.042 -2.621,-4.008 -3.999,-5.983 -1.52,-2.178 -3.37,-4.077 -4.986,-6.165 -1.682,-2.174 -3.947,-4.57 -6.849,-4.516 -2.886,0.055 -5.78,-0.002 -8.667,-0.002 -1.545,0 -3.125,-0.099 -4.666,-0.016 -1.628,0.088 -2.954,0.666 -4.665,0.68 -1.598,0.012 -2.405,-0.685 -4.004,-0.662 -1.692,0.024 -3.672,-0.316 -5.331,-0.036 -3.647,0.616 -6.401,0.766 -8.959,3.055 -0.478,0.426 -2.321,0.835 -2.664,1.351 -0.309,0.464 3.66,1.125 1.721,2.442 -1.391,0.946 -4.857,1.562 -5.723,2.965 -0.759,1.23 0.224,2.176 -0.641,3.342 -0.644,0.87 -0.275,4.823 -0.919,5.693 -0.834,1.126 -0.831,2.479 -0.815,3.852 0.021,1.841 -0.697,2.919 -0.665,4.669 0.057,3.076 -1.356,5.588 -1.335,8.665 0.01,1.555 0.004,3.111 0,4.666 -0.003,0.73 -0.266,2.025 -0.048,2.701 0.291,0.904 1.44,1.188 2.048,1.966" />
        </g>
        <g
           id="g5167"
           transform="matrix(0.40743295,0,0,-0.40743295,49.98877,307.36828)">
          <path
             d="M 0,0 C 0.614,-0.176 2.086,0.447 2.651,0.646 3.729,1.028 4.899,1.574 6,1.85 c 2.153,0.536 4.52,-0.26 6.667,0.298 2.036,0.53 3.951,0.94 5.833,-0.298 2.179,-1.434 1.732,-3.369 0.347,-5.203 -1.368,-1.81 -3.626,-2.775 -5.383,-4.146 -1.381,-1.077 -3.059,-2.735 -4.763,-3.2 -2.162,-0.59 -4.91,0.339 -6.701,1.498 -0.979,0.634 -2.432,1.827 -3.201,2.68 -0.625,0.695 -0.737,1.627 -1.5,2.256 0.012,-0.133 0.023,-0.268 0.034,-0.402"
             style="fill:#f68453;fill-opacity:1;fill-rule:nonzero;stroke:none"
             id="path5169"
             inkscape:connector-curvature="0" />
        </g>
        <path
           inkscape:connector-curvature="0"
           id="path5261"
           style="fill:#231f20;fill-opacity:1;fill-rule:nonzero;stroke:none;stroke-width:0.41544819"
           d="m 48.02267,306.38523 c 0.751131,-0.29122 1.281242,-0.85332 1.975872,-1.25257 0.932682,-0.53635 2.134988,-0.66888 3.182333,-0.69048 1.074349,-0.0216 2.126264,0.23182 3.144112,0.54757 0.997906,0.30867 1.812185,1.05731 2.881549,1.00288 0.825911,-0.042 1.223495,-0.83214 0.88989,-1.55128 -1.596568,-3.4424 -12.853553,-3.21183 -12.535734,1.59158 0.01413,0.21563 0.226419,0.4437 0.461978,0.3523" />
      </g>
    </g>
  </g>
</svg>
